<?xml version="1.0" encoding="utf-8" standalone="no"?>
<!DOCTYPE svg PUBLIC "-//W3C//DTD SVG 1.1//EN"
  "http://www.w3.org/Graphics/SVG/1.1/DTD/svg11.dtd">
<!-- Created with matplotlib (http://matplotlib.org/) -->
<svg height="576pt" version="1.1" viewBox="0 0 648 576" width="648pt" xmlns="http://www.w3.org/2000/svg" xmlns:xlink="http://www.w3.org/1999/xlink">
 <defs>
  <style type="text/css">
*{stroke-linecap:butt;stroke-linejoin:round;stroke-miterlimit:100000;}
  </style>
 </defs>
 <g id="figure_1">
  <g id="patch_1">
   <path d="M 0 576 
L 648 576 
L 648 0 
L 0 0 
z
" style="fill:#ffffff;"/>
  </g>
  <g id="axes_1">
   <g id="patch_2">
    <path d="M 81 504 
L 583.2 504 
L 583.2 57.6 
L 81 57.6 
z
" style="fill:#ffffff;"/>
   </g>
   <g id="matplotlib.axis_1"/>
   <g id="matplotlib.axis_2"/>
   <g id="line2d_1">
    <path clip-path="url(#p77204cfd00)" d="M 332.1 72.76626 
L 560.372727 459.36 
" style="fill:none;stroke:#000000;stroke-linecap:round;"/>
   </g>
   <g id="line2d_2">
    <path clip-path="url(#p77204cfd00)" d="M 103.827273 459.36 
L 560.372727 459.36 
" style="fill:none;stroke:#000000;stroke-linecap:round;"/>
   </g>
   <g id="line2d_3">
    <path clip-path="url(#p77204cfd00)" d="M 332.1 72.76626 
L 103.827273 459.36 
" style="fill:none;stroke:#000000;stroke-linecap:round;"/>
   </g>
   <g id="line2d_4">
    <path clip-path="url(#p77204cfd00)" d="M 332.1 72.76626 
L 560.372727 459.36 
" style="fill:none;stroke:#0000ff;stroke-dasharray:1.000000,3.000000;stroke-dashoffset:0.0;stroke-width:0.5;"/>
   </g>
   <g id="line2d_5">
    <path clip-path="url(#p77204cfd00)" d="M 309.272727 111.425634 
L 514.718182 459.36 
" style="fill:none;stroke:#0000ff;stroke-dasharray:1.000000,3.000000;stroke-dashoffset:0.0;stroke-width:0.5;"/>
   </g>
   <g id="line2d_6">
    <path clip-path="url(#p77204cfd00)" d="M 286.445455 150.085008 
L 469.063636 459.36 
" style="fill:none;stroke:#0000ff;stroke-dasharray:1.000000,3.000000;stroke-dashoffset:0.0;stroke-width:0.5;"/>
   </g>
   <g id="line2d_7">
    <path clip-path="url(#p77204cfd00)" d="M 263.618182 188.744382 
L 423.409091 459.36 
" style="fill:none;stroke:#0000ff;stroke-dasharray:1.000000,3.000000;stroke-dashoffset:0.0;stroke-width:0.5;"/>
   </g>
   <g id="line2d_8">
    <path clip-path="url(#p77204cfd00)" d="M 240.790909 227.403756 
L 377.754545 459.36 
" style="fill:none;stroke:#0000ff;stroke-dasharray:1.000000,3.000000;stroke-dashoffset:0.0;stroke-width:0.5;"/>
   </g>
   <g id="line2d_9">
    <path clip-path="url(#p77204cfd00)" d="M 217.963636 266.06313 
L 332.1 459.36 
" style="fill:none;stroke:#0000ff;stroke-dasharray:1.000000,3.000000;stroke-dashoffset:0.0;stroke-width:0.5;"/>
   </g>
   <g id="line2d_10">
    <path clip-path="url(#p77204cfd00)" d="M 195.136364 304.722504 
L 286.445455 459.36 
" style="fill:none;stroke:#0000ff;stroke-dasharray:1.000000,3.000000;stroke-dashoffset:0.0;stroke-width:0.5;"/>
   </g>
   <g id="line2d_11">
    <path clip-path="url(#p77204cfd00)" d="M 172.309091 343.381878 
L 240.790909 459.36 
" style="fill:none;stroke:#0000ff;stroke-dasharray:1.000000,3.000000;stroke-dashoffset:0.0;stroke-width:0.5;"/>
   </g>
   <g id="line2d_12">
    <path clip-path="url(#p77204cfd00)" d="M 149.481818 382.041252 
L 195.136364 459.36 
" style="fill:none;stroke:#0000ff;stroke-dasharray:1.000000,3.000000;stroke-dashoffset:0.0;stroke-width:0.5;"/>
   </g>
   <g id="line2d_13">
    <path clip-path="url(#p77204cfd00)" d="M 126.654545 420.700626 
L 149.481818 459.36 
" style="fill:none;stroke:#0000ff;stroke-dasharray:1.000000,3.000000;stroke-dashoffset:0.0;stroke-width:0.5;"/>
   </g>
   <g id="line2d_14">
    <path clip-path="url(#p77204cfd00)" d="M 103.827273 459.36 
L 560.372727 459.36 
" style="fill:none;stroke:#0000ff;stroke-dasharray:1.000000,3.000000;stroke-dashoffset:0.0;stroke-width:0.5;"/>
   </g>
   <g id="line2d_15">
    <path clip-path="url(#p77204cfd00)" d="M 332.1 72.76626 
L 103.827273 459.36 
" style="fill:none;stroke:#0000ff;stroke-dasharray:1.000000,3.000000;stroke-dashoffset:0.0;stroke-width:0.5;"/>
   </g>
   <g id="line2d_16">
    <path clip-path="url(#p77204cfd00)" d="M 126.654545 420.700626 
L 537.545455 420.700626 
" style="fill:none;stroke:#0000ff;stroke-dasharray:1.000000,3.000000;stroke-dashoffset:0.0;stroke-width:0.5;"/>
   </g>
   <g id="line2d_17">
    <path clip-path="url(#p77204cfd00)" d="M 354.927273 111.425634 
L 149.481818 459.36 
" style="fill:none;stroke:#0000ff;stroke-dasharray:1.000000,3.000000;stroke-dashoffset:0.0;stroke-width:0.5;"/>
   </g>
   <g id="line2d_18">
    <path clip-path="url(#p77204cfd00)" d="M 149.481818 382.041252 
L 514.718182 382.041252 
" style="fill:none;stroke:#0000ff;stroke-dasharray:1.000000,3.000000;stroke-dashoffset:0.0;stroke-width:0.5;"/>
   </g>
   <g id="line2d_19">
    <path clip-path="url(#p77204cfd00)" d="M 377.754545 150.085008 
L 195.136364 459.36 
" style="fill:none;stroke:#0000ff;stroke-dasharray:1.000000,3.000000;stroke-dashoffset:0.0;stroke-width:0.5;"/>
   </g>
   <g id="line2d_20">
    <path clip-path="url(#p77204cfd00)" d="M 172.309091 343.381878 
L 491.890909 343.381878 
" style="fill:none;stroke:#0000ff;stroke-dasharray:1.000000,3.000000;stroke-dashoffset:0.0;stroke-width:0.5;"/>
   </g>
   <g id="line2d_21">
    <path clip-path="url(#p77204cfd00)" d="M 400.581818 188.744382 
L 240.790909 459.36 
" style="fill:none;stroke:#0000ff;stroke-dasharray:1.000000,3.000000;stroke-dashoffset:0.0;stroke-width:0.5;"/>
   </g>
   <g id="line2d_22">
    <path clip-path="url(#p77204cfd00)" d="M 195.136364 304.722504 
L 469.063636 304.722504 
" style="fill:none;stroke:#0000ff;stroke-dasharray:1.000000,3.000000;stroke-dashoffset:0.0;stroke-width:0.5;"/>
   </g>
   <g id="line2d_23">
    <path clip-path="url(#p77204cfd00)" d="M 423.409091 227.403756 
L 286.445455 459.36 
" style="fill:none;stroke:#0000ff;stroke-dasharray:1.000000,3.000000;stroke-dashoffset:0.0;stroke-width:0.5;"/>
   </g>
   <g id="line2d_24">
    <path clip-path="url(#p77204cfd00)" d="M 217.963636 266.06313 
L 446.236364 266.06313 
" style="fill:none;stroke:#0000ff;stroke-dasharray:1.000000,3.000000;stroke-dashoffset:0.0;stroke-width:0.5;"/>
   </g>
   <g id="line2d_25">
    <path clip-path="url(#p77204cfd00)" d="M 446.236364 266.06313 
L 332.1 459.36 
" style="fill:none;stroke:#0000ff;stroke-dasharray:1.000000,3.000000;stroke-dashoffset:0.0;stroke-width:0.5;"/>
   </g>
   <g id="line2d_26">
    <path clip-path="url(#p77204cfd00)" d="M 240.790909 227.403756 
L 423.409091 227.403756 
" style="fill:none;stroke:#0000ff;stroke-dasharray:1.000000,3.000000;stroke-dashoffset:0.0;stroke-width:0.5;"/>
   </g>
   <g id="line2d_27">
    <path clip-path="url(#p77204cfd00)" d="M 469.063636 304.722504 
L 377.754545 459.36 
" style="fill:none;stroke:#0000ff;stroke-dasharray:1.000000,3.000000;stroke-dashoffset:0.0;stroke-width:0.5;"/>
   </g>
   <g id="line2d_28">
    <path clip-path="url(#p77204cfd00)" d="M 263.618182 188.744382 
L 400.581818 188.744382 
" style="fill:none;stroke:#0000ff;stroke-dasharray:1.000000,3.000000;stroke-dashoffset:0.0;stroke-width:0.5;"/>
   </g>
   <g id="line2d_29">
    <path clip-path="url(#p77204cfd00)" d="M 491.890909 343.381878 
L 423.409091 459.36 
" style="fill:none;stroke:#0000ff;stroke-dasharray:1.000000,3.000000;stroke-dashoffset:0.0;stroke-width:0.5;"/>
   </g>
   <g id="line2d_30">
    <path clip-path="url(#p77204cfd00)" d="M 286.445455 150.085008 
L 377.754545 150.085008 
" style="fill:none;stroke:#0000ff;stroke-dasharray:1.000000,3.000000;stroke-dashoffset:0.0;stroke-width:0.5;"/>
   </g>
   <g id="line2d_31">
    <path clip-path="url(#p77204cfd00)" d="M 514.718182 382.041252 
L 469.063636 459.36 
" style="fill:none;stroke:#0000ff;stroke-dasharray:1.000000,3.000000;stroke-dashoffset:0.0;stroke-width:0.5;"/>
   </g>
   <g id="line2d_32">
    <path clip-path="url(#p77204cfd00)" d="M 309.272727 111.425634 
L 354.927273 111.425634 
" style="fill:none;stroke:#0000ff;stroke-dasharray:1.000000,3.000000;stroke-dashoffset:0.0;stroke-width:0.5;"/>
   </g>
   <g id="line2d_33">
    <path clip-path="url(#p77204cfd00)" d="M 537.545455 420.700626 
L 514.718182 459.36 
" style="fill:none;stroke:#0000ff;stroke-dasharray:1.000000,3.000000;stroke-dashoffset:0.0;stroke-width:0.5;"/>
   </g>
   <g id="line2d_34">
    <path clip-path="url(#p77204cfd00)" d="M 332.1 72.76626 
L 332.1 72.76626 
" style="fill:none;stroke:#0000ff;stroke-dasharray:1.000000,3.000000;stroke-dashoffset:0.0;stroke-width:0.5;"/>
   </g>
   <g id="line2d_35">
    <path clip-path="url(#p77204cfd00)" d="M 560.372727 459.36 
L 560.372727 459.36 
" style="fill:none;stroke:#0000ff;stroke-dasharray:1.000000,3.000000;stroke-dashoffset:0.0;stroke-width:0.5;"/>
   </g>
   <g id="line2d_36">
    <defs>
     <path d="M 0 5 
C 1.326016 5 2.597899 4.473168 3.535534 3.535534 
C 4.473168 2.597899 5 1.326016 5 0 
C 5 -1.326016 4.473168 -2.597899 3.535534 -3.535534 
C 2.597899 -4.473168 1.326016 -5 0 -5 
C -1.326016 -5 -2.597899 -4.473168 -3.535534 -3.535534 
C -4.473168 -2.597899 -5 -1.326016 -5 0 
C -5 1.326016 -4.473168 2.597899 -3.535534 3.535534 
C -2.597899 4.473168 -1.326016 5 0 5 
z
" id="m5f8777c56a"/>
    </defs>
    <g clip-path="url(#p77204cfd00)">
     <use style="fill:#db5f57;" x="350.799889408" xlink:href="#m5f8777c56a" y="424.544583982"/>
     <use style="fill:#db5f57;" x="337.328988734" xlink:href="#m5f8777c56a" y="438.723209541"/>
     <use style="fill:#db5f57;" x="316.437226176" xlink:href="#m5f8777c56a" y="443.118066799"/>
     <use style="fill:#db5f57;" x="388.593333746" xlink:href="#m5f8777c56a" y="428.458624008"/>
    </g>
   </g>
   <g id="line2d_37">
    <defs>
     <path d="M 0 5 
C 1.326016 5 2.597899 4.473168 3.535534 3.535534 
C 4.473168 2.597899 5 1.326016 5 0 
C 5 -1.326016 4.473168 -2.597899 3.535534 -3.535534 
C 2.597899 -4.473168 1.326016 -5 0 -5 
C -1.326016 -5 -2.597899 -4.473168 -3.535534 -3.535534 
C -4.473168 -2.597899 -5 -1.326016 -5 0 
C -5 1.326016 -4.473168 2.597899 -3.535534 3.535534 
C -2.597899 4.473168 -1.326016 5 0 5 
z
" id="mad09a0c7e8"/>
    </defs>
    <g clip-path="url(#p77204cfd00)">
     <use style="fill:#db9c57;" x="358.34885912" xlink:href="#mad09a0c7e8" y="434.486695991"/>
     <use style="fill:#db9c57;" x="355.890308028" xlink:href="#mad09a0c7e8" y="435.947068019"/>
     <use style="fill:#db9c57;" x="342.505738346" xlink:href="#mad09a0c7e8" y="440.232975713"/>
     <use style="fill:#db9c57;" x="319.728372607" xlink:href="#mad09a0c7e8" y="378.916088599"/>
     <use style="fill:#db9c57;" x="321.781985116" xlink:href="#mad09a0c7e8" y="386.294991719"/>
     <use style="fill:#db9c57;" x="358.429863645" xlink:href="#mad09a0c7e8" y="440.945658588"/>
     <use style="fill:#db9c57;" x="322.845480891" xlink:href="#mad09a0c7e8" y="401.17287388"/>
     <use style="fill:#db9c57;" x="345.737276911" xlink:href="#mad09a0c7e8" y="440.63848716"/>
     <use style="fill:#db9c57;" x="362.839970893" xlink:href="#mad09a0c7e8" y="431.286284975"/>
     <use style="fill:#db9c57;" x="342.001517808" xlink:href="#mad09a0c7e8" y="431.035609102"/>
     <use style="fill:#db9c57;" x="297.440211286" xlink:href="#mad09a0c7e8" y="441.903714785"/>
     <use style="fill:#db9c57;" x="377.878354364" xlink:href="#mad09a0c7e8" y="424.32102794"/>
    </g>
   </g>
   <g id="line2d_38">
    <defs>
     <path d="M 0 5 
C 1.326016 5 2.597899 4.473168 3.535534 3.535534 
C 4.473168 2.597899 5 1.326016 5 0 
C 5 -1.326016 4.473168 -2.597899 3.535534 -3.535534 
C 2.597899 -4.473168 1.326016 -5 0 -5 
C -1.326016 -5 -2.597899 -4.473168 -3.535534 -3.535534 
C -4.473168 -2.597899 -5 -1.326016 -5 0 
C -5 1.326016 -4.473168 2.597899 -3.535534 3.535534 
C -2.597899 4.473168 -1.326016 5 0 5 
z
" id="maa5895374c"/>
    </defs>
    <g clip-path="url(#p77204cfd00)">
     <use style="fill:#dbd957;" x="352.417319028" xlink:href="#maa5895374c" y="430.519933373"/>
     <use style="fill:#dbd957;" x="384.095177852" xlink:href="#maa5895374c" y="433.394702441"/>
     <use style="fill:#dbd957;" x="406.139812734" xlink:href="#maa5895374c" y="429.222781012"/>
     <use style="fill:#dbd957;" x="366.405817098" xlink:href="#maa5895374c" y="426.674108745"/>
     <use style="fill:#dbd957;" x="381.829458858" xlink:href="#maa5895374c" y="420.001756213"/>
     <use style="fill:#dbd957;" x="362.973642764" xlink:href="#maa5895374c" y="424.162838151"/>
     <use style="fill:#dbd957;" x="385.121353624" xlink:href="#maa5895374c" y="426.888273491"/>
     <use style="fill:#dbd957;" x="430.298356205" xlink:href="#maa5895374c" y="414.670048168"/>
    </g>
   </g>
   <g id="line2d_39">
    <defs>
     <path d="M 0 5 
C 1.326016 5 2.597899 4.473168 3.535534 3.535534 
C 4.473168 2.597899 5 1.326016 5 0 
C 5 -1.326016 4.473168 -2.597899 3.535534 -3.535534 
C 2.597899 -4.473168 1.326016 -5 0 -5 
C -1.326016 -5 -2.597899 -4.473168 -3.535534 -3.535534 
C -4.473168 -2.597899 -5 -1.326016 -5 0 
C -5 1.326016 -4.473168 2.597899 -3.535534 3.535534 
C -2.597899 4.473168 -1.326016 5 0 5 
z
" id="m125a1212dd"/>
    </defs>
    <g clip-path="url(#p77204cfd00)">
     <use style="fill:#a0db57;" x="418.592589774" xlink:href="#m125a1212dd" y="406.891078172"/>
     <use style="fill:#a0db57;" x="418.918112378" xlink:href="#m125a1212dd" y="383.066234842"/>
     <use style="fill:#a0db57;" x="415.418678256" xlink:href="#m125a1212dd" y="414.982767693"/>
     <use style="fill:#a0db57;" x="427.705064715" xlink:href="#m125a1212dd" y="397.056699634"/>
     <use style="fill:#a0db57;" x="380.209633081" xlink:href="#m125a1212dd" y="412.763252553"/>
     <use style="fill:#a0db57;" x="392.785397905" xlink:href="#m125a1212dd" y="436.034190657"/>
     <use style="fill:#a0db57;" x="384.229711058" xlink:href="#m125a1212dd" y="446.642711077"/>
     <use style="fill:#a0db57;" x="389.702058339" xlink:href="#m125a1212dd" y="446.890328776"/>
     <use style="fill:#a0db57;" x="385.445001645" xlink:href="#m125a1212dd" y="444.932546037"/>
     <use style="fill:#a0db57;" x="412.339229835" xlink:href="#m125a1212dd" y="404.643767387"/>
     <use style="fill:#a0db57;" x="399.70133506" xlink:href="#m125a1212dd" y="448.290059468"/>
     <use style="fill:#a0db57;" x="381.687791445" xlink:href="#m125a1212dd" y="364.977846636"/>
     <use style="fill:#a0db57;" x="384.844760393" xlink:href="#m125a1212dd" y="447.085257077"/>
     <use style="fill:#a0db57;" x="391.278183376" xlink:href="#m125a1212dd" y="444.129113661"/>
     <use style="fill:#a0db57;" x="374.318291333" xlink:href="#m125a1212dd" y="444.615558277"/>
     <use style="fill:#a0db57;" x="387.407842844" xlink:href="#m125a1212dd" y="447.693864051"/>
     <use style="fill:#a0db57;" x="372.670611914" xlink:href="#m125a1212dd" y="440.586211711"/>
    </g>
   </g>
   <g id="line2d_40">
    <defs>
     <path d="M 0 5 
C 1.326016 5 2.597899 4.473168 3.535534 3.535534 
C 4.473168 2.597899 5 1.326016 5 0 
C 5 -1.326016 4.473168 -2.597899 3.535534 -3.535534 
C 2.597899 -4.473168 1.326016 -5 0 -5 
C -1.326016 -5 -2.597899 -4.473168 -3.535534 -3.535534 
C -4.473168 -2.597899 -5 -1.326016 -5 0 
C -5 1.326016 -4.473168 2.597899 -3.535534 3.535534 
C -2.597899 4.473168 -1.326016 5 0 5 
z
" id="md63cc97825"/>
    </defs>
    <g clip-path="url(#p77204cfd00)">
     <use style="fill:#63db57;" x="404.113102174" xlink:href="#md63cc97825" y="453.86965637"/>
     <use style="fill:#63db57;" x="357.031685303" xlink:href="#md63cc97825" y="451.404672253"/>
     <use style="fill:#63db57;" x="395.989689706" xlink:href="#md63cc97825" y="451.249527959"/>
    </g>
   </g>
   <g id="line2d_41">
    <defs>
     <path d="M 0 5 
C 1.326016 5 2.597899 4.473168 3.535534 3.535534 
C 4.473168 2.597899 5 1.326016 5 0 
C 5 -1.326016 4.473168 -2.597899 3.535534 -3.535534 
C 2.597899 -4.473168 1.326016 -5 0 -5 
C -1.326016 -5 -2.597899 -4.473168 -3.535534 -3.535534 
C -4.473168 -2.597899 -5 -1.326016 -5 0 
C -5 1.326016 -4.473168 2.597899 -3.535534 3.535534 
C -2.597899 4.473168 -1.326016 5 0 5 
z
" id="m26f5310c31"/>
    </defs>
    <g clip-path="url(#p77204cfd00)">
     <use style="fill:#57db87;" x="343.731894405" xlink:href="#m26f5310c31" y="209.598020671"/>
    </g>
   </g>
   <g id="line2d_42">
    <defs>
     <path d="M 0 5 
C 1.326016 5 2.597899 4.473168 3.535534 3.535534 
C 4.473168 2.597899 5 1.326016 5 0 
C 5 -1.326016 4.473168 -2.597899 3.535534 -3.535534 
C 2.597899 -4.473168 1.326016 -5 0 -5 
C -1.326016 -5 -2.597899 -4.473168 -3.535534 -3.535534 
C -4.473168 -2.597899 -5 -1.326016 -5 0 
C -5 1.326016 -4.473168 2.597899 -3.535534 3.535534 
C -2.597899 4.473168 -1.326016 5 0 5 
z
" id="mdb68a37513"/>
    </defs>
    <g clip-path="url(#p77204cfd00)">
     <use style="fill:#57dbc5;" x="254.073518462" xlink:href="#mdb68a37513" y="381.244552694"/>
     <use style="fill:#57dbc5;" x="336.332969828" xlink:href="#mdb68a37513" y="404.859480579"/>
    </g>
   </g>
   <g id="line2d_43">
    <defs>
     <path d="M 0 5 
C 1.326016 5 2.597899 4.473168 3.535534 3.535534 
C 4.473168 2.597899 5 1.326016 5 0 
C 5 -1.326016 4.473168 -2.597899 3.535534 -3.535534 
C 2.597899 -4.473168 1.326016 -5 0 -5 
C -1.326016 -5 -2.597899 -4.473168 -3.535534 -3.535534 
C -4.473168 -2.597899 -5 -1.326016 -5 0 
C -5 1.326016 -4.473168 2.597899 -3.535534 3.535534 
C -2.597899 4.473168 -1.326016 5 0 5 
z
" id="mce03a2c6d0"/>
    </defs>
    <g clip-path="url(#p77204cfd00)">
     <use style="fill:#57b5db;" x="428.67509309" xlink:href="#mce03a2c6d0" y="299.936741056"/>
     <use style="fill:#57b5db;" x="423.618709282" xlink:href="#mce03a2c6d0" y="290.32667298"/>
     <use style="fill:#57b5db;" x="349.881512268" xlink:href="#mce03a2c6d0" y="188.909299625"/>
     <use style="fill:#57b5db;" x="433.506514898" xlink:href="#mce03a2c6d0" y="288.052145373"/>
     <use style="fill:#57b5db;" x="435.09395091" xlink:href="#mce03a2c6d0" y="288.52980744"/>
    </g>
   </g>
   <g id="line2d_44">
    <defs>
     <path d="M 0 5 
C 1.326016 5 2.597899 4.473168 3.535534 3.535534 
C 4.473168 2.597899 5 1.326016 5 0 
C 5 -1.326016 4.473168 -2.597899 3.535534 -3.535534 
C 2.597899 -4.473168 1.326016 -5 0 -5 
C -1.326016 -5 -2.597899 -4.473168 -3.535534 -3.535534 
C -4.473168 -2.597899 -5 -1.326016 -5 0 
C -5 1.326016 -4.473168 2.597899 -3.535534 3.535534 
C -2.597899 4.473168 -1.326016 5 0 5 
z
" id="m8b1815e008"/>
    </defs>
    <g clip-path="url(#p77204cfd00)">
     <use style="fill:#5778db;" x="395.511696178" xlink:href="#m8b1815e008" y="323.227865659"/>
     <use style="fill:#5778db;" x="389.602706448" xlink:href="#m8b1815e008" y="330.693903632"/>
     <use style="fill:#5778db;" x="397.754588359" xlink:href="#m8b1815e008" y="341.178583262"/>
     <use style="fill:#5778db;" x="395.548418922" xlink:href="#m8b1815e008" y="336.429358733"/>
     <use style="fill:#5778db;" x="378.17392239" xlink:href="#m8b1815e008" y="351.081821359"/>
     <use style="fill:#5778db;" x="397.820829559" xlink:href="#m8b1815e008" y="342.070754017"/>
     <use style="fill:#5778db;" x="383.408724066" xlink:href="#m8b1815e008" y="338.614696724"/>
    </g>
   </g>
   <g id="line2d_45">
    <defs>
     <path d="M 0 5 
C 1.326016 5 2.597899 4.473168 3.535534 3.535534 
C 4.473168 2.597899 5 1.326016 5 0 
C 5 -1.326016 4.473168 -2.597899 3.535534 -3.535534 
C 2.597899 -4.473168 1.326016 -5 0 -5 
C -1.326016 -5 -2.597899 -4.473168 -3.535534 -3.535534 
C -4.473168 -2.597899 -5 -1.326016 -5 0 
C -5 1.326016 -4.473168 2.597899 -3.535534 3.535534 
C -2.597899 4.473168 -1.326016 5 0 5 
z
" id="m953343bbed"/>
    </defs>
    <g clip-path="url(#p77204cfd00)">
     <use style="fill:#7357db;" x="387.092231526" xlink:href="#m953343bbed" y="339.029369576"/>
     <use style="fill:#7357db;" x="372.741039172" xlink:href="#m953343bbed" y="356.152715939"/>
     <use style="fill:#7357db;" x="370.129276642" xlink:href="#m953343bbed" y="377.014749105"/>
     <use style="fill:#7357db;" x="388.976278334" xlink:href="#m953343bbed" y="350.481250068"/>
     <use style="fill:#7357db;" x="388.022206196" xlink:href="#m953343bbed" y="339.818269134"/>
     <use style="fill:#7357db;" x="384.77681365" xlink:href="#m953343bbed" y="362.460957581"/>
     <use style="fill:#7357db;" x="385.354813712" xlink:href="#m953343bbed" y="352.689263381"/>
    </g>
   </g>
   <g id="line2d_46">
    <defs>
     <path d="M 0 5 
C 1.326016 5 2.597899 4.473168 3.535534 3.535534 
C 4.473168 2.597899 5 1.326016 5 0 
C 5 -1.326016 4.473168 -2.597899 3.535534 -3.535534 
C 2.597899 -4.473168 1.326016 -5 0 -5 
C -1.326016 -5 -2.597899 -4.473168 -3.535534 -3.535534 
C -4.473168 -2.597899 -5 -1.326016 -5 0 
C -5 1.326016 -4.473168 2.597899 -3.535534 3.535534 
C -2.597899 4.473168 -1.326016 5 0 5 
z
" id="mbd1f427075"/>
    </defs>
    <g clip-path="url(#p77204cfd00)">
     <use style="fill:#b057db;" x="398.486391879" xlink:href="#mbd1f427075" y="350.109930922"/>
     <use style="fill:#b057db;" x="432.881883665" xlink:href="#mbd1f427075" y="339.423394745"/>
     <use style="fill:#b057db;" x="418.728158224" xlink:href="#mbd1f427075" y="341.780969269"/>
     <use style="fill:#b057db;" x="397.288518508" xlink:href="#mbd1f427075" y="378.127028624"/>
     <use style="fill:#b057db;" x="412.992713341" xlink:href="#mbd1f427075" y="370.736810781"/>
     <use style="fill:#b057db;" x="377.957169002" xlink:href="#mbd1f427075" y="404.464985368"/>
     <use style="fill:#b057db;" x="389.740633778" xlink:href="#mbd1f427075" y="388.679451368"/>
    </g>
   </g>
   <g id="line2d_47">
    <defs>
     <path d="M 0 5 
C 1.326016 5 2.597899 4.473168 3.535534 3.535534 
C 4.473168 2.597899 5 1.326016 5 0 
C 5 -1.326016 4.473168 -2.597899 3.535534 -3.535534 
C 2.597899 -4.473168 1.326016 -5 0 -5 
C -1.326016 -5 -2.597899 -4.473168 -3.535534 -3.535534 
C -4.473168 -2.597899 -5 -1.326016 -5 0 
C -5 1.326016 -4.473168 2.597899 -3.535534 3.535534 
C -2.597899 4.473168 -1.326016 5 0 5 
z
" id="m53e914fdab"/>
    </defs>
    <g clip-path="url(#p77204cfd00)">
     <use style="fill:#db57c9;" x="423.68249895" xlink:href="#m53e914fdab" y="347.860547724"/>
     <use style="fill:#db57c9;" x="434.884260489" xlink:href="#m53e914fdab" y="360.052131709"/>
     <use style="fill:#db57c9;" x="460.086371073" xlink:href="#m53e914fdab" y="380.499622018"/>
     <use style="fill:#db57c9;" x="440.900723521" xlink:href="#m53e914fdab" y="333.601594361"/>
     <use style="fill:#db57c9;" x="420.851756804" xlink:href="#m53e914fdab" y="284.612614042"/>
    </g>
   </g>
   <g id="patch_3">
    <path d="M 81 57.6 
L 583.2 57.6 
" style="fill:none;stroke:#262626;stroke-linecap:square;stroke-linejoin:miter;stroke-width:1.25;"/>
   </g>
   <g id="patch_4">
    <path d="M 583.2 504 
L 583.2 57.6 
" style="fill:none;stroke:#262626;stroke-linecap:square;stroke-linejoin:miter;stroke-width:1.25;"/>
   </g>
   <g id="patch_5">
    <path d="M 81 504 
L 583.2 504 
" style="fill:none;stroke:#262626;stroke-linecap:square;stroke-linejoin:miter;stroke-width:1.25;"/>
   </g>
   <g id="patch_6">
    <path d="M 81 504 
L 81 57.6 
" style="fill:none;stroke:#262626;stroke-linecap:square;stroke-linejoin:miter;stroke-width:1.25;"/>
   </g>
   <g id="text_1">
    <!-- Na -->
    <defs>
     <path d="M 17.4375 36.03125 
L 4.984375 38.28125 
Q 7.078125 45.796875 12.203125 49.40625 
Q 17.328125 53.03125 27.4375 53.03125 
Q 36.625 53.03125 41.109375 50.859375 
Q 45.609375 48.6875 47.4375 45.34375 
Q 49.265625 42 49.265625 33.0625 
L 49.125 17.046875 
Q 49.125 10.203125 49.78125 6.953125 
Q 50.4375 3.71875 52.25 0 
L 38.671875 0 
Q 38.140625 1.375 37.359375 4.046875 
Q 37.015625 5.28125 36.859375 5.671875 
Q 33.34375 2.25 29.34375 0.53125 
Q 25.34375 -1.171875 20.796875 -1.171875 
Q 12.796875 -1.171875 8.171875 3.171875 
Q 3.5625 7.515625 3.5625 14.15625 
Q 3.5625 18.5625 5.65625 22 
Q 7.765625 25.4375 11.546875 27.265625 
Q 15.328125 29.109375 22.46875 30.46875 
Q 32.078125 32.28125 35.796875 33.84375 
L 35.796875 35.203125 
Q 35.796875 39.15625 33.84375 40.84375 
Q 31.890625 42.53125 26.46875 42.53125 
Q 22.796875 42.53125 20.75 41.09375 
Q 18.703125 39.65625 17.4375 36.03125 
M 35.796875 24.90625 
Q 33.15625 24.03125 27.4375 22.796875 
Q 21.734375 21.578125 19.96875 20.40625 
Q 17.28125 18.5 17.28125 15.578125 
Q 17.28125 12.703125 19.421875 10.59375 
Q 21.578125 8.5 24.90625 8.5 
Q 28.609375 8.5 31.984375 10.9375 
Q 34.46875 12.796875 35.25 15.484375 
Q 35.796875 17.234375 35.796875 22.171875 
z
" id="Arial-BoldMT-61"/>
     <path d="M 7.421875 0 
L 7.421875 71.578125 
L 21.484375 71.578125 
L 50.78125 23.78125 
L 50.78125 71.578125 
L 64.203125 71.578125 
L 64.203125 0 
L 49.703125 0 
L 20.84375 46.6875 
L 20.84375 0 
z
" id="Arial-BoldMT-4e"/>
    </defs>
    <g transform="translate(83.7395028409 481.68)scale(0.1 -0.1)">
     <use xlink:href="#Arial-BoldMT-4e"/>
     <use x="72.216796875" xlink:href="#Arial-BoldMT-61"/>
    </g>
   </g>
   <g id="text_2">
    <!-- K -->
    <defs>
     <path d="M 7.46875 0 
L 7.46875 71.578125 
L 21.921875 71.578125 
L 21.921875 39.796875 
L 51.125 71.578125 
L 70.5625 71.578125 
L 43.609375 43.703125 
L 72.015625 0 
L 53.328125 0 
L 33.640625 33.59375 
L 21.921875 21.625 
L 21.921875 0 
z
" id="Arial-BoldMT-4b"/>
    </defs>
    <g transform="translate(570.458153409 481.68)scale(0.1 -0.1)">
     <use xlink:href="#Arial-BoldMT-4b"/>
    </g>
   </g>
   <g id="text_3">
    <!-- Ca+Mg -->
    <defs>
     <path d="M 5.90625 -3.421875 
L 21.578125 -5.328125 
Q 21.96875 -8.0625 23.390625 -9.078125 
Q 25.34375 -10.546875 29.546875 -10.546875 
Q 34.90625 -10.546875 37.59375 -8.9375 
Q 39.40625 -7.859375 40.328125 -5.46875 
Q 40.96875 -3.765625 40.96875 0.828125 
L 40.96875 8.40625 
Q 34.8125 0 25.4375 0 
Q 14.984375 0 8.890625 8.84375 
Q 4.109375 15.828125 4.109375 26.21875 
Q 4.109375 39.265625 10.375 46.140625 
Q 16.65625 53.03125 25.984375 53.03125 
Q 35.59375 53.03125 41.84375 44.578125 
L 41.84375 51.859375 
L 54.6875 51.859375 
L 54.6875 5.328125 
Q 54.6875 -3.859375 53.171875 -8.390625 
Q 51.65625 -12.9375 48.921875 -15.515625 
Q 46.1875 -18.109375 41.625 -19.578125 
Q 37.0625 -21.046875 30.078125 -21.046875 
Q 16.890625 -21.046875 11.375 -16.53125 
Q 5.859375 -12.015625 5.859375 -5.078125 
Q 5.859375 -4.390625 5.90625 -3.421875 
M 18.171875 27 
Q 18.171875 18.75 21.359375 14.90625 
Q 24.5625 11.078125 29.25 11.078125 
Q 34.28125 11.078125 37.75 15.015625 
Q 41.21875 18.953125 41.21875 26.65625 
Q 41.21875 34.71875 37.890625 38.625 
Q 34.578125 42.53125 29.5 42.53125 
Q 24.5625 42.53125 21.359375 38.6875 
Q 18.171875 34.859375 18.171875 27 
" id="Arial-BoldMT-67"/>
     <path d="M 53.078125 26.3125 
L 67.09375 21.875 
Q 63.875 10.15625 56.375 4.46875 
Q 48.875 -1.21875 37.359375 -1.21875 
Q 23.09375 -1.21875 13.90625 8.515625 
Q 4.734375 18.265625 4.734375 35.15625 
Q 4.734375 53.03125 13.953125 62.90625 
Q 23.1875 72.796875 38.234375 72.796875 
Q 51.375 72.796875 59.578125 65.046875 
Q 64.453125 60.453125 66.890625 51.859375 
L 52.59375 48.4375 
Q 51.3125 54 47.28125 57.21875 
Q 43.265625 60.453125 37.5 60.453125 
Q 29.546875 60.453125 24.578125 54.734375 
Q 19.625 49.03125 19.625 36.234375 
Q 19.625 22.65625 24.5 16.890625 
Q 29.390625 11.140625 37.203125 11.140625 
Q 42.96875 11.140625 47.109375 14.796875 
Q 51.265625 18.453125 53.078125 26.3125 
" id="Arial-BoldMT-43"/>
     <path d="M 7.078125 0 
L 7.078125 71.578125 
L 28.71875 71.578125 
L 41.703125 22.75 
L 54.546875 71.578125 
L 76.21875 71.578125 
L 76.21875 0 
L 62.796875 0 
L 62.796875 56.34375 
L 48.578125 0 
L 34.671875 0 
L 20.515625 56.34375 
L 20.515625 0 
z
" id="Arial-BoldMT-4d"/>
     <path d="M 22.90625 10.296875 
L 22.90625 28.90625 
L 4.15625 28.90625 
L 4.15625 41.75 
L 22.90625 41.75 
L 22.90625 60.359375 
L 35.40625 60.359375 
L 35.40625 41.75 
L 54.203125 41.75 
L 54.203125 28.90625 
L 35.40625 28.90625 
L 35.40625 10.296875 
z
" id="Arial-BoldMT-2b"/>
    </defs>
    <g transform="translate(315.56953125 66.528)scale(0.1 -0.1)">
     <use xlink:href="#Arial-BoldMT-43"/>
     <use x="72.216796875" xlink:href="#Arial-BoldMT-61"/>
     <use x="127.83203125" xlink:href="#Arial-BoldMT-2b"/>
     <use x="186.23046875" xlink:href="#Arial-BoldMT-4d"/>
     <use x="269.53125" xlink:href="#Arial-BoldMT-67"/>
    </g>
   </g>
   <g id="text_4">
    <!-- Phillipsite - Jackson et al., 2017 -->
    <defs>
     <path d="M 3.078125 15.484375 
L 11.765625 16.84375 
Q 12.5 11.625 15.84375 8.84375 
Q 19.1875 6.0625 25.203125 6.0625 
Q 31.25 6.0625 34.171875 8.515625 
Q 37.109375 10.984375 37.109375 14.3125 
Q 37.109375 17.28125 34.515625 19 
Q 32.71875 20.171875 25.53125 21.96875 
Q 15.875 24.421875 12.140625 26.203125 
Q 8.40625 27.984375 6.46875 31.125 
Q 4.546875 34.28125 4.546875 38.09375 
Q 4.546875 41.546875 6.125 44.5 
Q 7.71875 47.46875 10.453125 49.421875 
Q 12.5 50.921875 16.03125 51.96875 
Q 19.578125 53.03125 23.640625 53.03125 
Q 29.734375 53.03125 34.34375 51.265625 
Q 38.96875 49.515625 41.15625 46.5 
Q 43.359375 43.5 44.1875 38.484375 
L 35.59375 37.3125 
Q 35.015625 41.3125 32.203125 43.546875 
Q 29.390625 45.796875 24.265625 45.796875 
Q 18.21875 45.796875 15.625 43.796875 
Q 13.03125 41.796875 13.03125 39.109375 
Q 13.03125 37.40625 14.109375 36.03125 
Q 15.1875 34.625 17.484375 33.6875 
Q 18.796875 33.203125 25.25 31.453125 
Q 34.578125 28.953125 38.25 27.359375 
Q 41.9375 25.78125 44.03125 22.75 
Q 46.140625 19.734375 46.140625 15.234375 
Q 46.140625 10.84375 43.578125 6.953125 
Q 41.015625 3.078125 36.171875 0.953125 
Q 31.34375 -1.171875 25.25 -1.171875 
Q 15.140625 -1.171875 9.84375 3.03125 
Q 4.546875 7.234375 3.078125 15.484375 
" id="ArialMT-73"/>
     <path d="M 3.171875 21.484375 
L 3.171875 30.328125 
L 30.171875 30.328125 
L 30.171875 21.484375 
z
" id="ArialMT-2d"/>
     <path d="M 6.59375 0 
L 6.59375 51.859375 
L 14.5 51.859375 
L 14.5 44.484375 
Q 20.21875 53.03125 31 53.03125 
Q 35.6875 53.03125 39.625 51.34375 
Q 43.5625 49.65625 45.515625 46.921875 
Q 47.46875 44.1875 48.25 40.4375 
Q 48.734375 37.984375 48.734375 31.890625 
L 48.734375 0 
L 39.9375 0 
L 39.9375 31.546875 
Q 39.9375 36.921875 38.90625 39.578125 
Q 37.890625 42.234375 35.28125 43.8125 
Q 32.671875 45.40625 29.15625 45.40625 
Q 23.53125 45.40625 19.453125 41.84375 
Q 15.375 38.28125 15.375 28.328125 
L 15.375 0 
z
" id="ArialMT-6e"/>
     <path d="M 6.59375 0 
L 6.59375 71.578125 
L 15.375 71.578125 
L 15.375 45.90625 
Q 21.53125 53.03125 30.90625 53.03125 
Q 36.671875 53.03125 40.921875 50.75 
Q 45.171875 48.484375 47 44.484375 
Q 48.828125 40.484375 48.828125 32.859375 
L 48.828125 0 
L 40.046875 0 
L 40.046875 32.859375 
Q 40.046875 39.453125 37.1875 42.453125 
Q 34.328125 45.453125 29.109375 45.453125 
Q 25.203125 45.453125 21.75 43.421875 
Q 18.3125 41.40625 16.84375 37.9375 
Q 15.375 34.46875 15.375 28.375 
L 15.375 0 
z
" id="ArialMT-68"/>
     <path d="M 4.15625 35.296875 
Q 4.15625 48 6.765625 55.734375 
Q 9.375 63.484375 14.515625 67.671875 
Q 19.671875 71.875 27.484375 71.875 
Q 33.25 71.875 37.59375 69.546875 
Q 41.9375 67.234375 44.765625 62.859375 
Q 47.609375 58.5 49.21875 52.21875 
Q 50.828125 45.953125 50.828125 35.296875 
Q 50.828125 22.703125 48.234375 14.96875 
Q 45.65625 7.234375 40.5 3 
Q 35.359375 -1.21875 27.484375 -1.21875 
Q 17.140625 -1.21875 11.234375 6.203125 
Q 4.15625 15.140625 4.15625 35.296875 
M 13.1875 35.296875 
Q 13.1875 17.671875 17.3125 11.828125 
Q 21.4375 6 27.484375 6 
Q 33.546875 6 37.671875 11.859375 
Q 41.796875 17.71875 41.796875 35.296875 
Q 41.796875 52.984375 37.671875 58.78125 
Q 33.546875 64.59375 27.390625 64.59375 
Q 21.34375 64.59375 17.71875 59.46875 
Q 13.1875 52.9375 13.1875 35.296875 
" id="ArialMT-30"/>
     <path d="M 42.09375 16.703125 
L 51.171875 15.578125 
Q 49.03125 7.625 43.21875 3.21875 
Q 37.40625 -1.171875 28.375 -1.171875 
Q 17 -1.171875 10.328125 5.828125 
Q 3.65625 12.84375 3.65625 25.484375 
Q 3.65625 38.578125 10.390625 45.796875 
Q 17.140625 53.03125 27.875 53.03125 
Q 38.28125 53.03125 44.875 45.953125 
Q 51.46875 38.875 51.46875 26.03125 
Q 51.46875 25.25 51.421875 23.6875 
L 12.75 23.6875 
Q 13.234375 15.140625 17.578125 10.59375 
Q 21.921875 6.0625 28.421875 6.0625 
Q 33.25 6.0625 36.671875 8.59375 
Q 40.09375 11.140625 42.09375 16.703125 
M 13.234375 30.90625 
L 42.1875 30.90625 
Q 41.609375 37.453125 38.875 40.71875 
Q 34.671875 45.796875 27.984375 45.796875 
Q 21.921875 45.796875 17.796875 41.75 
Q 13.671875 37.703125 13.234375 30.90625 
" id="ArialMT-65"/>
     <path d="M 25.78125 7.859375 
L 27.046875 0.09375 
Q 23.34375 -0.6875 20.40625 -0.6875 
Q 15.625 -0.6875 12.984375 0.828125 
Q 10.359375 2.34375 9.28125 4.8125 
Q 8.203125 7.28125 8.203125 15.1875 
L 8.203125 45.015625 
L 1.765625 45.015625 
L 1.765625 51.859375 
L 8.203125 51.859375 
L 8.203125 64.703125 
L 16.9375 69.96875 
L 16.9375 51.859375 
L 25.78125 51.859375 
L 25.78125 45.015625 
L 16.9375 45.015625 
L 16.9375 14.703125 
Q 16.9375 10.9375 17.40625 9.859375 
Q 17.875 8.796875 18.921875 8.15625 
Q 19.96875 7.515625 21.921875 7.515625 
Q 23.390625 7.515625 25.78125 7.859375 
" id="ArialMT-74"/>
     <path d="M 6.640625 0 
L 6.640625 71.578125 
L 15.4375 71.578125 
L 15.4375 30.765625 
L 36.234375 51.859375 
L 47.609375 51.859375 
L 27.78125 32.625 
L 49.609375 0 
L 38.765625 0 
L 21.625 26.515625 
L 15.4375 20.5625 
L 15.4375 0 
z
" id="ArialMT-6b"/>
     <path d="M 2.875 20.3125 
L 11.421875 21.484375 
Q 11.765625 13.28125 14.5 10.25 
Q 17.234375 7.234375 22.078125 7.234375 
Q 25.640625 7.234375 28.21875 8.859375 
Q 30.8125 10.5 31.78125 13.296875 
Q 32.765625 16.109375 32.765625 22.265625 
L 32.765625 71.578125 
L 42.234375 71.578125 
L 42.234375 22.796875 
Q 42.234375 13.8125 40.0625 8.875 
Q 37.890625 3.953125 33.171875 1.359375 
Q 28.46875 -1.21875 22.125 -1.21875 
Q 12.703125 -1.21875 7.6875 4.203125 
Q 2.6875 9.625 2.875 20.3125 
" id="ArialMT-4a"/>
     <path d="M 40.4375 19 
L 49.078125 17.875 
Q 47.65625 8.9375 41.8125 3.875 
Q 35.984375 -1.171875 27.484375 -1.171875 
Q 16.84375 -1.171875 10.375 5.78125 
Q 3.90625 12.75 3.90625 25.734375 
Q 3.90625 34.125 6.6875 40.421875 
Q 9.46875 46.734375 15.15625 49.875 
Q 20.84375 53.03125 27.546875 53.03125 
Q 35.984375 53.03125 41.359375 48.75 
Q 46.734375 44.484375 48.25 36.625 
L 39.703125 35.296875 
Q 38.484375 40.53125 35.375 43.15625 
Q 32.28125 45.796875 27.875 45.796875 
Q 21.234375 45.796875 17.078125 41.03125 
Q 12.9375 36.28125 12.9375 25.984375 
Q 12.9375 15.53125 16.9375 10.796875 
Q 20.953125 6.0625 27.390625 6.0625 
Q 32.5625 6.0625 36.03125 9.234375 
Q 39.5 12.40625 40.4375 19 
" id="ArialMT-63"/>
     <path d="M 4.734375 62.203125 
L 4.734375 70.65625 
L 51.078125 70.65625 
L 51.078125 63.8125 
Q 44.234375 56.546875 37.515625 44.484375 
Q 30.8125 32.421875 27.15625 19.671875 
Q 24.515625 10.6875 23.78125 0 
L 14.75 0 
Q 14.890625 8.453125 18.0625 20.40625 
Q 21.234375 32.375 27.171875 43.484375 
Q 33.109375 54.59375 39.796875 62.203125 
z
" id="ArialMT-37"/>
     <path d="M 7.71875 0 
L 7.71875 71.578125 
L 34.71875 71.578125 
Q 41.84375 71.578125 45.609375 70.90625 
Q 50.875 70.015625 54.4375 67.546875 
Q 58.015625 65.09375 60.1875 60.640625 
Q 62.359375 56.203125 62.359375 50.875 
Q 62.359375 41.75 56.546875 35.421875 
Q 50.734375 29.109375 35.546875 29.109375 
L 17.1875 29.109375 
L 17.1875 0 
z
M 17.1875 37.546875 
L 35.6875 37.546875 
Q 44.875 37.546875 48.734375 40.96875 
Q 52.59375 44.390625 52.59375 50.59375 
Q 52.59375 55.078125 50.3125 58.265625 
Q 48.046875 61.46875 44.34375 62.5 
Q 41.9375 63.140625 35.5 63.140625 
L 17.1875 63.140625 
z
" id="ArialMT-50"/>
     <path id="ArialMT-20"/>
     <path d="M 6.640625 61.46875 
L 6.640625 71.578125 
L 15.4375 71.578125 
L 15.4375 61.46875 
z
M 6.640625 0 
L 6.640625 51.859375 
L 15.4375 51.859375 
L 15.4375 0 
z
" id="ArialMT-69"/>
     <path d="M 40.4375 6.390625 
Q 35.546875 2.25 31.03125 0.53125 
Q 26.515625 -1.171875 21.34375 -1.171875 
Q 12.796875 -1.171875 8.203125 3 
Q 3.609375 7.171875 3.609375 13.671875 
Q 3.609375 17.484375 5.34375 20.625 
Q 7.078125 23.78125 9.890625 25.6875 
Q 12.703125 27.59375 16.21875 28.5625 
Q 18.796875 29.25 24.03125 29.890625 
Q 34.671875 31.15625 39.703125 32.90625 
Q 39.75 34.71875 39.75 35.203125 
Q 39.75 40.578125 37.25 42.78125 
Q 33.890625 45.75 27.25 45.75 
Q 21.046875 45.75 18.09375 43.578125 
Q 15.140625 41.40625 13.71875 35.890625 
L 5.125 37.0625 
Q 6.296875 42.578125 8.984375 45.96875 
Q 11.671875 49.359375 16.75 51.1875 
Q 21.828125 53.03125 28.515625 53.03125 
Q 35.15625 53.03125 39.296875 51.46875 
Q 43.453125 49.90625 45.40625 47.53125 
Q 47.359375 45.171875 48.140625 41.546875 
Q 48.578125 39.3125 48.578125 33.453125 
L 48.578125 21.734375 
Q 48.578125 9.46875 49.140625 6.21875 
Q 49.703125 2.984375 51.375 0 
L 42.1875 0 
Q 40.828125 2.734375 40.4375 6.390625 
M 39.703125 26.03125 
Q 34.90625 24.078125 25.34375 22.703125 
Q 19.921875 21.921875 17.671875 20.9375 
Q 15.4375 19.96875 14.203125 18.09375 
Q 12.984375 16.21875 12.984375 13.921875 
Q 12.984375 10.40625 15.640625 8.0625 
Q 18.3125 5.71875 23.4375 5.71875 
Q 28.515625 5.71875 32.46875 7.9375 
Q 36.421875 10.15625 38.28125 14.015625 
Q 39.703125 17 39.703125 22.796875 
z
" id="ArialMT-61"/>
     <path d="M 9.078125 0 
L 9.078125 10.015625 
L 19.09375 10.015625 
L 19.09375 0 
z
" id="ArialMT-2e"/>
     <path d="M 37.25 0 
L 28.46875 0 
L 28.46875 56 
Q 25.296875 52.984375 20.140625 49.953125 
Q 14.984375 46.921875 10.890625 45.40625 
L 10.890625 53.90625 
Q 18.265625 57.375 23.78125 62.296875 
Q 29.296875 67.234375 31.59375 71.875 
L 37.25 71.875 
z
" id="ArialMT-31"/>
     <path d="M 6.390625 0 
L 6.390625 71.578125 
L 15.1875 71.578125 
L 15.1875 0 
z
" id="ArialMT-6c"/>
     <path d="M 50.34375 8.453125 
L 50.34375 0 
L 3.03125 0 
Q 2.9375 3.171875 4.046875 6.109375 
Q 5.859375 10.9375 9.828125 15.625 
Q 13.8125 20.3125 21.34375 26.46875 
Q 33.015625 36.03125 37.109375 41.625 
Q 41.21875 47.21875 41.21875 52.203125 
Q 41.21875 57.421875 37.46875 61 
Q 33.734375 64.59375 27.734375 64.59375 
Q 21.390625 64.59375 17.578125 60.78125 
Q 13.765625 56.984375 13.71875 50.25 
L 4.6875 51.171875 
Q 5.609375 61.28125 11.65625 66.578125 
Q 17.71875 71.875 27.9375 71.875 
Q 38.234375 71.875 44.234375 66.15625 
Q 50.25 60.453125 50.25 52 
Q 50.25 47.703125 48.484375 43.546875 
Q 46.734375 39.40625 42.65625 34.8125 
Q 38.578125 30.21875 29.109375 22.21875 
Q 21.1875 15.578125 18.9375 13.203125 
Q 16.703125 10.84375 15.234375 8.453125 
z
" id="ArialMT-32"/>
     <path d="M 3.328125 25.921875 
Q 3.328125 40.328125 11.328125 47.265625 
Q 18.015625 53.03125 27.640625 53.03125 
Q 38.328125 53.03125 45.109375 46.015625 
Q 51.90625 39.015625 51.90625 26.65625 
Q 51.90625 16.65625 48.90625 10.90625 
Q 45.90625 5.171875 40.15625 2 
Q 34.421875 -1.171875 27.640625 -1.171875 
Q 16.75 -1.171875 10.03125 5.8125 
Q 3.328125 12.796875 3.328125 25.921875 
M 12.359375 25.921875 
Q 12.359375 15.96875 16.703125 11.015625 
Q 21.046875 6.0625 27.640625 6.0625 
Q 34.1875 6.0625 38.53125 11.03125 
Q 42.875 16.015625 42.875 26.21875 
Q 42.875 35.84375 38.5 40.796875 
Q 34.125 45.75 27.640625 45.75 
Q 21.046875 45.75 16.703125 40.8125 
Q 12.359375 35.890625 12.359375 25.921875 
" id="ArialMT-6f"/>
     <path d="M 8.890625 0 
L 8.890625 10.015625 
L 18.890625 10.015625 
L 18.890625 0 
Q 18.890625 -5.515625 16.9375 -8.90625 
Q 14.984375 -12.3125 10.75 -14.15625 
L 8.296875 -10.40625 
Q 11.078125 -9.1875 12.390625 -6.8125 
Q 13.71875 -4.4375 13.875 0 
z
" id="ArialMT-2c"/>
     <path d="M 6.59375 -19.875 
L 6.59375 51.859375 
L 14.59375 51.859375 
L 14.59375 45.125 
Q 17.4375 49.078125 21 51.046875 
Q 24.5625 53.03125 29.640625 53.03125 
Q 36.28125 53.03125 41.359375 49.609375 
Q 46.4375 46.1875 49.015625 39.953125 
Q 51.609375 33.734375 51.609375 26.3125 
Q 51.609375 18.359375 48.75 11.984375 
Q 45.90625 5.609375 40.453125 2.21875 
Q 35.015625 -1.171875 29 -1.171875 
Q 24.609375 -1.171875 21.109375 0.6875 
Q 17.625 2.546875 15.375 5.375 
L 15.375 -19.875 
z
M 14.546875 25.640625 
Q 14.546875 15.625 18.59375 10.84375 
Q 22.65625 6.0625 28.421875 6.0625 
Q 34.28125 6.0625 38.453125 11.015625 
Q 42.625 15.96875 42.625 26.375 
Q 42.625 36.28125 38.546875 41.203125 
Q 34.46875 46.140625 28.8125 46.140625 
Q 23.1875 46.140625 18.859375 40.890625 
Q 14.546875 35.640625 14.546875 25.640625 
" id="ArialMT-70"/>
    </defs>
    <g style="fill:#262626;" transform="translate(192.034375 52.6)scale(0.2 -0.2)">
     <use xlink:href="#ArialMT-50"/>
     <use x="66.69921875" xlink:href="#ArialMT-68"/>
     <use x="122.314453125" xlink:href="#ArialMT-69"/>
     <use x="144.53125" xlink:href="#ArialMT-6c"/>
     <use x="166.748046875" xlink:href="#ArialMT-6c"/>
     <use x="188.96484375" xlink:href="#ArialMT-69"/>
     <use x="211.181640625" xlink:href="#ArialMT-70"/>
     <use x="266.796875" xlink:href="#ArialMT-73"/>
     <use x="316.796875" xlink:href="#ArialMT-69"/>
     <use x="339.013671875" xlink:href="#ArialMT-74"/>
     <use x="366.796875" xlink:href="#ArialMT-65"/>
     <use x="422.412109375" xlink:href="#ArialMT-20"/>
     <use x="450.1953125" xlink:href="#ArialMT-2d"/>
     <use x="483.49609375" xlink:href="#ArialMT-20"/>
     <use x="511.279296875" xlink:href="#ArialMT-4a"/>
     <use x="561.279296875" xlink:href="#ArialMT-61"/>
     <use x="616.89453125" xlink:href="#ArialMT-63"/>
     <use x="666.89453125" xlink:href="#ArialMT-6b"/>
     <use x="716.89453125" xlink:href="#ArialMT-73"/>
     <use x="766.89453125" xlink:href="#ArialMT-6f"/>
     <use x="822.509765625" xlink:href="#ArialMT-6e"/>
     <use x="878.125" xlink:href="#ArialMT-20"/>
     <use x="905.908203125" xlink:href="#ArialMT-65"/>
     <use x="961.5234375" xlink:href="#ArialMT-74"/>
     <use x="989.306640625" xlink:href="#ArialMT-20"/>
     <use x="1017.08984375" xlink:href="#ArialMT-61"/>
     <use x="1072.705078125" xlink:href="#ArialMT-6c"/>
     <use x="1094.921875" xlink:href="#ArialMT-2e"/>
     <use x="1122.705078125" xlink:href="#ArialMT-2c"/>
     <use x="1150.48828125" xlink:href="#ArialMT-20"/>
     <use x="1178.271484375" xlink:href="#ArialMT-32"/>
     <use x="1233.88671875" xlink:href="#ArialMT-30"/>
     <use x="1289.501953125" xlink:href="#ArialMT-31"/>
     <use x="1345.1171875" xlink:href="#ArialMT-37"/>
    </g>
   </g>
   <g id="legend_1">
    <g id="line2d_48"/>
    <g id="line2d_49">
     <g>
      <use style="fill:#db5f57;" x="100.0" xlink:href="#m5f8777c56a" y="70.2578125"/>
     </g>
    </g>
    <g id="text_5">
     <!-- ANZ Pumice A -->
     <defs>
      <path d="M 6.59375 0 
L 6.59375 51.859375 
L 14.453125 51.859375 
L 14.453125 44.578125 
Q 16.890625 48.390625 20.9375 50.703125 
Q 25 53.03125 30.171875 53.03125 
Q 35.9375 53.03125 39.625 50.640625 
Q 43.3125 48.25 44.828125 43.953125 
Q 50.984375 53.03125 60.84375 53.03125 
Q 68.5625 53.03125 72.703125 48.75 
Q 76.859375 44.484375 76.859375 35.59375 
L 76.859375 0 
L 68.109375 0 
L 68.109375 32.671875 
Q 68.109375 37.9375 67.25 40.25 
Q 66.40625 42.578125 64.15625 43.984375 
Q 61.921875 45.40625 58.890625 45.40625 
Q 53.421875 45.40625 49.796875 41.765625 
Q 46.1875 38.140625 46.1875 30.125 
L 46.1875 0 
L 37.40625 0 
L 37.40625 33.6875 
Q 37.40625 39.546875 35.25 42.46875 
Q 33.109375 45.40625 28.21875 45.40625 
Q 24.515625 45.40625 21.359375 43.453125 
Q 18.21875 41.5 16.796875 37.734375 
Q 15.375 33.984375 15.375 26.90625 
L 15.375 0 
z
" id="ArialMT-6d"/>
      <path d="M 2 0 
L 2 8.796875 
L 38.671875 54.640625 
Q 42.578125 59.515625 46.09375 63.140625 
L 6.15625 63.140625 
L 6.15625 71.578125 
L 57.421875 71.578125 
L 57.421875 63.140625 
L 17.234375 13.484375 
L 12.890625 8.453125 
L 58.59375 8.453125 
L 58.59375 0 
z
" id="ArialMT-5a"/>
      <path d="M 7.625 0 
L 7.625 71.578125 
L 17.328125 71.578125 
L 54.9375 15.375 
L 54.9375 71.578125 
L 64.015625 71.578125 
L 64.015625 0 
L 54.296875 0 
L 16.703125 56.25 
L 16.703125 0 
z
" id="ArialMT-4e"/>
      <path d="M 40.578125 0 
L 40.578125 7.625 
Q 34.515625 -1.171875 24.125 -1.171875 
Q 19.53125 -1.171875 15.546875 0.578125 
Q 11.578125 2.34375 9.640625 5 
Q 7.71875 7.671875 6.9375 11.53125 
Q 6.390625 14.109375 6.390625 19.734375 
L 6.390625 51.859375 
L 15.1875 51.859375 
L 15.1875 23.09375 
Q 15.1875 16.21875 15.71875 13.8125 
Q 16.546875 10.359375 19.234375 8.375 
Q 21.921875 6.390625 25.875 6.390625 
Q 29.828125 6.390625 33.296875 8.421875 
Q 36.765625 10.453125 38.203125 13.9375 
Q 39.65625 17.4375 39.65625 24.078125 
L 39.65625 51.859375 
L 48.4375 51.859375 
L 48.4375 0 
z
" id="ArialMT-75"/>
      <path d="M -0.140625 0 
L 27.34375 71.578125 
L 37.546875 71.578125 
L 66.84375 0 
L 56.0625 0 
L 47.703125 21.6875 
L 17.78125 21.6875 
L 9.90625 0 
z
M 20.515625 29.390625 
L 44.78125 29.390625 
L 37.3125 49.21875 
Q 33.890625 58.25 32.234375 64.0625 
Q 30.859375 57.171875 28.375 50.390625 
z
" id="ArialMT-41"/>
     </defs>
     <g style="fill:#262626;" transform="translate(118.0 73.7578125)scale(0.1 -0.1)">
      <use xlink:href="#ArialMT-41"/>
      <use x="66.69921875" xlink:href="#ArialMT-4e"/>
      <use x="138.916015625" xlink:href="#ArialMT-5a"/>
      <use x="200.0" xlink:href="#ArialMT-20"/>
      <use x="227.783203125" xlink:href="#ArialMT-50"/>
      <use x="294.482421875" xlink:href="#ArialMT-75"/>
      <use x="350.09765625" xlink:href="#ArialMT-6d"/>
      <use x="433.3984375" xlink:href="#ArialMT-69"/>
      <use x="455.615234375" xlink:href="#ArialMT-63"/>
      <use x="505.615234375" xlink:href="#ArialMT-65"/>
      <use x="561.23046875" xlink:href="#ArialMT-20"/>
      <use x="588.935546875" xlink:href="#ArialMT-41"/>
     </g>
    </g>
    <g id="line2d_50"/>
    <g id="line2d_51">
     <g>
      <use style="fill:#db9c57;" x="100.0" xlink:href="#mad09a0c7e8" y="84.403125"/>
     </g>
    </g>
    <g id="text_6">
     <!-- ANZ Pumice B -->
     <defs>
      <path d="M 7.328125 0 
L 7.328125 71.578125 
L 34.1875 71.578125 
Q 42.390625 71.578125 47.34375 69.40625 
Q 52.296875 67.234375 55.09375 62.71875 
Q 57.90625 58.203125 57.90625 53.265625 
Q 57.90625 48.6875 55.421875 44.625 
Q 52.9375 40.578125 47.90625 38.09375 
Q 54.390625 36.1875 57.875 31.59375 
Q 61.375 27 61.375 20.75 
Q 61.375 15.71875 59.25 11.390625 
Q 57.125 7.078125 54 4.734375 
Q 50.875 2.390625 46.15625 1.1875 
Q 41.453125 0 34.625 0 
z
M 16.796875 41.5 
L 32.28125 41.5 
Q 38.578125 41.5 41.3125 42.328125 
Q 44.921875 43.40625 46.75 45.890625 
Q 48.578125 48.390625 48.578125 52.15625 
Q 48.578125 55.71875 46.875 58.421875 
Q 45.171875 61.140625 41.984375 62.140625 
Q 38.8125 63.140625 31.109375 63.140625 
L 16.796875 63.140625 
z
M 16.796875 8.453125 
L 34.625 8.453125 
Q 39.203125 8.453125 41.0625 8.796875 
Q 44.34375 9.375 46.53125 10.734375 
Q 48.734375 12.109375 50.140625 14.71875 
Q 51.5625 17.328125 51.5625 20.75 
Q 51.5625 24.75 49.515625 27.703125 
Q 47.46875 30.671875 43.828125 31.859375 
Q 40.1875 33.0625 33.34375 33.0625 
L 16.796875 33.0625 
z
" id="ArialMT-42"/>
     </defs>
     <g style="fill:#262626;" transform="translate(118.0 87.903125)scale(0.1 -0.1)">
      <use xlink:href="#ArialMT-41"/>
      <use x="66.69921875" xlink:href="#ArialMT-4e"/>
      <use x="138.916015625" xlink:href="#ArialMT-5a"/>
      <use x="200.0" xlink:href="#ArialMT-20"/>
      <use x="227.783203125" xlink:href="#ArialMT-50"/>
      <use x="294.482421875" xlink:href="#ArialMT-75"/>
      <use x="350.09765625" xlink:href="#ArialMT-6d"/>
      <use x="433.3984375" xlink:href="#ArialMT-69"/>
      <use x="455.615234375" xlink:href="#ArialMT-63"/>
      <use x="505.615234375" xlink:href="#ArialMT-65"/>
      <use x="561.23046875" xlink:href="#ArialMT-20"/>
      <use x="589.013671875" xlink:href="#ArialMT-42"/>
     </g>
    </g>
    <g id="line2d_52"/>
    <g id="line2d_53">
     <g>
      <use style="fill:#dbd957;" x="100.0" xlink:href="#maa5895374c" y="98.5484375"/>
     </g>
    </g>
    <g id="text_7">
     <!-- ANZ Tuff Clast -->
     <defs>
      <path d="M 8.6875 0 
L 8.6875 45.015625 
L 0.921875 45.015625 
L 0.921875 51.859375 
L 8.6875 51.859375 
L 8.6875 57.375 
Q 8.6875 62.59375 9.625 65.140625 
Q 10.890625 68.5625 14.078125 70.671875 
Q 17.28125 72.796875 23.046875 72.796875 
Q 26.765625 72.796875 31.25 71.921875 
L 29.9375 64.265625 
Q 27.203125 64.75 24.75 64.75 
Q 20.75 64.75 19.09375 63.03125 
Q 17.4375 61.328125 17.4375 56.640625 
L 17.4375 51.859375 
L 27.546875 51.859375 
L 27.546875 45.015625 
L 17.4375 45.015625 
L 17.4375 0 
z
" id="ArialMT-66"/>
      <path d="M 58.796875 25.09375 
L 68.265625 22.703125 
Q 65.28125 11.03125 57.546875 4.90625 
Q 49.8125 -1.21875 38.625 -1.21875 
Q 27.046875 -1.21875 19.796875 3.484375 
Q 12.546875 8.203125 8.765625 17.140625 
Q 4.984375 26.078125 4.984375 36.328125 
Q 4.984375 47.515625 9.25 55.828125 
Q 13.53125 64.15625 21.40625 68.46875 
Q 29.296875 72.796875 38.765625 72.796875 
Q 49.515625 72.796875 56.828125 67.328125 
Q 64.15625 61.859375 67.046875 51.953125 
L 57.71875 49.75 
Q 55.21875 57.5625 50.484375 61.125 
Q 45.75 64.703125 38.578125 64.703125 
Q 30.328125 64.703125 24.78125 60.734375 
Q 19.234375 56.78125 16.984375 50.109375 
Q 14.75 43.453125 14.75 36.375 
Q 14.75 27.25 17.40625 20.4375 
Q 20.0625 13.625 25.671875 10.25 
Q 31.296875 6.890625 37.84375 6.890625 
Q 45.796875 6.890625 51.3125 11.46875 
Q 56.84375 16.0625 58.796875 25.09375 
" id="ArialMT-43"/>
      <path d="M 25.921875 0 
L 25.921875 63.140625 
L 2.34375 63.140625 
L 2.34375 71.578125 
L 59.078125 71.578125 
L 59.078125 63.140625 
L 35.40625 63.140625 
L 35.40625 0 
z
" id="ArialMT-54"/>
     </defs>
     <g style="fill:#262626;" transform="translate(118.0 102.0484375)scale(0.1 -0.1)">
      <use xlink:href="#ArialMT-41"/>
      <use x="66.69921875" xlink:href="#ArialMT-4e"/>
      <use x="138.916015625" xlink:href="#ArialMT-5a"/>
      <use x="200.0" xlink:href="#ArialMT-20"/>
      <use x="227.767578125" xlink:href="#ArialMT-54"/>
      <use x="288.8046875" xlink:href="#ArialMT-75"/>
      <use x="344.419921875" xlink:href="#ArialMT-66"/>
      <use x="372.1875" xlink:href="#ArialMT-66"/>
      <use x="399.970703125" xlink:href="#ArialMT-20"/>
      <use x="427.75390625" xlink:href="#ArialMT-43"/>
      <use x="499.970703125" xlink:href="#ArialMT-6c"/>
      <use x="522.1875" xlink:href="#ArialMT-61"/>
      <use x="577.802734375" xlink:href="#ArialMT-73"/>
      <use x="627.802734375" xlink:href="#ArialMT-74"/>
     </g>
    </g>
    <g id="line2d_54"/>
    <g id="line2d_55">
     <g>
      <use style="fill:#a0db57;" x="100.0" xlink:href="#m125a1212dd" y="112.69375"/>
     </g>
    </g>
    <g id="text_8">
     <!-- BT Pumice -->
     <g style="fill:#262626;" transform="translate(118.0 116.19375)scale(0.1 -0.1)">
      <use xlink:href="#ArialMT-42"/>
      <use x="66.69921875" xlink:href="#ArialMT-54"/>
      <use x="127.767578125" xlink:href="#ArialMT-20"/>
      <use x="155.55078125" xlink:href="#ArialMT-50"/>
      <use x="222.25" xlink:href="#ArialMT-75"/>
      <use x="277.865234375" xlink:href="#ArialMT-6d"/>
      <use x="361.166015625" xlink:href="#ArialMT-69"/>
      <use x="383.3828125" xlink:href="#ArialMT-63"/>
      <use x="433.3828125" xlink:href="#ArialMT-65"/>
     </g>
    </g>
    <g id="line2d_56"/>
    <g id="line2d_57">
     <g>
      <use style="fill:#63db57;" x="100.0" xlink:href="#md63cc97825" y="126.8390625"/>
     </g>
    </g>
    <g id="text_9">
     <!-- BT Vitric Matrix -->
     <defs>
      <path d="M 6.5 0 
L 6.5 51.859375 
L 14.40625 51.859375 
L 14.40625 44 
Q 17.4375 49.515625 20 51.265625 
Q 22.5625 53.03125 25.640625 53.03125 
Q 30.078125 53.03125 34.671875 50.203125 
L 31.640625 42.046875 
Q 28.421875 43.953125 25.203125 43.953125 
Q 22.3125 43.953125 20.015625 42.21875 
Q 17.71875 40.484375 16.75 37.40625 
Q 15.28125 32.71875 15.28125 27.15625 
L 15.28125 0 
z
" id="ArialMT-72"/>
      <path d="M 28.171875 0 
L 0.4375 71.578125 
L 10.6875 71.578125 
L 29.296875 19.578125 
Q 31.546875 13.328125 33.0625 7.859375 
Q 34.71875 13.71875 36.921875 19.578125 
L 56.25 71.578125 
L 65.921875 71.578125 
L 37.890625 0 
z
" id="ArialMT-56"/>
      <path d="M 0.734375 0 
L 19.671875 26.953125 
L 2.15625 51.859375 
L 13.140625 51.859375 
L 21.09375 39.703125 
Q 23.34375 36.234375 24.703125 33.890625 
Q 26.859375 37.109375 28.65625 39.59375 
L 37.40625 51.859375 
L 47.90625 51.859375 
L 29.984375 27.4375 
L 49.265625 0 
L 38.484375 0 
L 27.828125 16.109375 
L 25 20.453125 
L 11.375 0 
z
" id="ArialMT-78"/>
      <path d="M 7.421875 0 
L 7.421875 71.578125 
L 21.6875 71.578125 
L 38.625 20.90625 
Q 40.96875 13.8125 42.046875 10.296875 
Q 43.265625 14.203125 45.84375 21.78125 
L 62.984375 71.578125 
L 75.734375 71.578125 
L 75.734375 0 
L 66.609375 0 
L 66.609375 59.90625 
L 45.796875 0 
L 37.25 0 
L 16.546875 60.9375 
L 16.546875 0 
z
" id="ArialMT-4d"/>
     </defs>
     <g style="fill:#262626;" transform="translate(118.0 130.3390625)scale(0.1 -0.1)">
      <use xlink:href="#ArialMT-42"/>
      <use x="66.69921875" xlink:href="#ArialMT-54"/>
      <use x="127.767578125" xlink:href="#ArialMT-20"/>
      <use x="155.55078125" xlink:href="#ArialMT-56"/>
      <use x="222.234375" xlink:href="#ArialMT-69"/>
      <use x="244.451171875" xlink:href="#ArialMT-74"/>
      <use x="272.234375" xlink:href="#ArialMT-72"/>
      <use x="305.53515625" xlink:href="#ArialMT-69"/>
      <use x="327.751953125" xlink:href="#ArialMT-63"/>
      <use x="377.751953125" xlink:href="#ArialMT-20"/>
      <use x="405.53515625" xlink:href="#ArialMT-4d"/>
      <use x="488.8359375" xlink:href="#ArialMT-61"/>
      <use x="544.451171875" xlink:href="#ArialMT-74"/>
      <use x="572.234375" xlink:href="#ArialMT-72"/>
      <use x="605.53515625" xlink:href="#ArialMT-69"/>
      <use x="627.751953125" xlink:href="#ArialMT-78"/>
     </g>
    </g>
    <g id="line2d_58"/>
    <g id="line2d_59">
     <g>
      <use style="fill:#57db87;" x="100.0" xlink:href="#m26f5310c31" y="140.984375"/>
     </g>
    </g>
    <g id="text_10">
     <!-- Bai Area Y -->
     <defs>
      <path d="M 27.875 0 
L 27.875 30.328125 
L 0.296875 71.578125 
L 11.8125 71.578125 
L 25.921875 50 
Q 29.828125 43.953125 33.203125 37.890625 
Q 36.421875 43.5 41.015625 50.53125 
L 54.890625 71.578125 
L 65.921875 71.578125 
L 37.359375 30.328125 
L 37.359375 0 
z
" id="ArialMT-59"/>
     </defs>
     <g style="fill:#262626;" transform="translate(118.0 144.484375)scale(0.1 -0.1)">
      <use xlink:href="#ArialMT-42"/>
      <use x="66.69921875" xlink:href="#ArialMT-61"/>
      <use x="122.314453125" xlink:href="#ArialMT-69"/>
      <use x="144.53125" xlink:href="#ArialMT-20"/>
      <use x="172.236328125" xlink:href="#ArialMT-41"/>
      <use x="238.935546875" xlink:href="#ArialMT-72"/>
      <use x="272.236328125" xlink:href="#ArialMT-65"/>
      <use x="327.8515625" xlink:href="#ArialMT-61"/>
      <use x="383.466796875" xlink:href="#ArialMT-20"/>
      <use x="411.234375" xlink:href="#ArialMT-59"/>
     </g>
    </g>
    <g id="line2d_60"/>
    <g id="line2d_61">
     <g>
      <use style="fill:#57dbc5;" x="100.0" xlink:href="#mdb68a37513" y="155.1296875"/>
     </g>
    </g>
    <g id="text_11">
     <!-- Bai Pumlime -->
     <g style="fill:#262626;" transform="translate(118.0 158.6296875)scale(0.1 -0.1)">
      <use xlink:href="#ArialMT-42"/>
      <use x="66.69921875" xlink:href="#ArialMT-61"/>
      <use x="122.314453125" xlink:href="#ArialMT-69"/>
      <use x="144.53125" xlink:href="#ArialMT-20"/>
      <use x="172.314453125" xlink:href="#ArialMT-50"/>
      <use x="239.013671875" xlink:href="#ArialMT-75"/>
      <use x="294.62890625" xlink:href="#ArialMT-6d"/>
      <use x="377.9296875" xlink:href="#ArialMT-6c"/>
      <use x="400.146484375" xlink:href="#ArialMT-69"/>
      <use x="422.36328125" xlink:href="#ArialMT-6d"/>
      <use x="505.6640625" xlink:href="#ArialMT-65"/>
     </g>
    </g>
    <g id="line2d_62"/>
    <g id="line2d_63">
     <g>
      <use style="fill:#57b5db;" x="100.0" xlink:href="#mce03a2c6d0" y="169.275"/>
     </g>
    </g>
    <g id="text_12">
     <!-- NYT This study -->
     <defs>
      <path d="M 6.203125 -19.96875 
L 5.21875 -11.71875 
Q 8.109375 -12.5 10.25 -12.5 
Q 13.1875 -12.5 14.9375 -11.515625 
Q 16.703125 -10.546875 17.828125 -8.796875 
Q 18.65625 -7.46875 20.515625 -2.25 
Q 20.75 -1.515625 21.296875 -0.09375 
L 1.609375 51.859375 
L 11.078125 51.859375 
L 21.875 21.828125 
Q 23.96875 16.109375 25.640625 9.8125 
Q 27.15625 15.875 29.25 21.625 
L 40.328125 51.859375 
L 49.125 51.859375 
L 29.390625 -0.875 
Q 26.21875 -9.421875 24.46875 -12.640625 
Q 22.125 -17 19.09375 -19.015625 
Q 16.0625 -21.046875 11.859375 -21.046875 
Q 9.328125 -21.046875 6.203125 -19.96875 
" id="ArialMT-79"/>
      <path d="M 40.234375 0 
L 40.234375 6.546875 
Q 35.296875 -1.171875 25.734375 -1.171875 
Q 19.53125 -1.171875 14.328125 2.25 
Q 9.125 5.671875 6.265625 11.796875 
Q 3.421875 17.921875 3.421875 25.875 
Q 3.421875 33.640625 6 39.96875 
Q 8.59375 46.296875 13.765625 49.65625 
Q 18.953125 53.03125 25.34375 53.03125 
Q 30.03125 53.03125 33.6875 51.046875 
Q 37.359375 49.078125 39.65625 45.90625 
L 39.65625 71.578125 
L 48.390625 71.578125 
L 48.390625 0 
z
M 12.453125 25.875 
Q 12.453125 15.921875 16.640625 10.984375 
Q 20.84375 6.0625 26.5625 6.0625 
Q 32.328125 6.0625 36.34375 10.765625 
Q 40.375 15.484375 40.375 25.140625 
Q 40.375 35.796875 36.265625 40.765625 
Q 32.171875 45.75 26.171875 45.75 
Q 20.3125 45.75 16.375 40.96875 
Q 12.453125 36.1875 12.453125 25.875 
" id="ArialMT-64"/>
     </defs>
     <g style="fill:#262626;" transform="translate(118.0 172.775)scale(0.1 -0.1)">
      <use xlink:href="#ArialMT-4e"/>
      <use x="72.216796875" xlink:href="#ArialMT-59"/>
      <use x="138.916015625" xlink:href="#ArialMT-54"/>
      <use x="199.984375" xlink:href="#ArialMT-20"/>
      <use x="227.751953125" xlink:href="#ArialMT-54"/>
      <use x="288.8359375" xlink:href="#ArialMT-68"/>
      <use x="344.451171875" xlink:href="#ArialMT-69"/>
      <use x="366.66796875" xlink:href="#ArialMT-73"/>
      <use x="416.66796875" xlink:href="#ArialMT-20"/>
      <use x="444.451171875" xlink:href="#ArialMT-73"/>
      <use x="494.451171875" xlink:href="#ArialMT-74"/>
      <use x="522.234375" xlink:href="#ArialMT-75"/>
      <use x="577.849609375" xlink:href="#ArialMT-64"/>
      <use x="633.46484375" xlink:href="#ArialMT-79"/>
     </g>
    </g>
    <g id="line2d_64"/>
    <g id="line2d_65">
     <g>
      <use style="fill:#5778db;" x="100.0" xlink:href="#m8b1815e008" y="183.5375"/>
     </g>
    </g>
    <g id="text_13">
     <!-- PCO Portus Cosanus Cmatrix -->
     <defs>
      <path d="M 4.828125 34.859375 
Q 4.828125 52.6875 14.390625 62.765625 
Q 23.96875 72.859375 39.109375 72.859375 
Q 49.03125 72.859375 56.984375 68.109375 
Q 64.9375 63.375 69.109375 54.90625 
Q 73.296875 46.4375 73.296875 35.6875 
Q 73.296875 24.8125 68.890625 16.21875 
Q 64.5 7.625 56.4375 3.203125 
Q 48.390625 -1.21875 39.0625 -1.21875 
Q 28.953125 -1.21875 20.984375 3.65625 
Q 13.03125 8.546875 8.921875 16.984375 
Q 4.828125 25.4375 4.828125 34.859375 
M 14.59375 34.71875 
Q 14.59375 21.78125 21.546875 14.328125 
Q 28.515625 6.890625 39.015625 6.890625 
Q 49.703125 6.890625 56.609375 14.40625 
Q 63.53125 21.921875 63.53125 35.75 
Q 63.53125 44.484375 60.578125 51 
Q 57.625 57.515625 51.921875 61.109375 
Q 46.234375 64.703125 39.15625 64.703125 
Q 29.109375 64.703125 21.84375 57.78125 
Q 14.59375 50.875 14.59375 34.71875 
" id="ArialMT-4f"/>
     </defs>
     <g style="fill:#262626;" transform="translate(118.0 187.0375)scale(0.1 -0.1)">
      <use xlink:href="#ArialMT-50"/>
      <use x="66.69921875" xlink:href="#ArialMT-43"/>
      <use x="138.916015625" xlink:href="#ArialMT-4f"/>
      <use x="216.69921875" xlink:href="#ArialMT-20"/>
      <use x="244.482421875" xlink:href="#ArialMT-50"/>
      <use x="311.181640625" xlink:href="#ArialMT-6f"/>
      <use x="366.796875" xlink:href="#ArialMT-72"/>
      <use x="400.09765625" xlink:href="#ArialMT-74"/>
      <use x="427.880859375" xlink:href="#ArialMT-75"/>
      <use x="483.49609375" xlink:href="#ArialMT-73"/>
      <use x="533.49609375" xlink:href="#ArialMT-20"/>
      <use x="561.279296875" xlink:href="#ArialMT-43"/>
      <use x="633.49609375" xlink:href="#ArialMT-6f"/>
      <use x="689.111328125" xlink:href="#ArialMT-73"/>
      <use x="739.111328125" xlink:href="#ArialMT-61"/>
      <use x="794.7265625" xlink:href="#ArialMT-6e"/>
      <use x="850.341796875" xlink:href="#ArialMT-75"/>
      <use x="905.95703125" xlink:href="#ArialMT-73"/>
      <use x="955.95703125" xlink:href="#ArialMT-20"/>
      <use x="983.740234375" xlink:href="#ArialMT-43"/>
      <use x="1055.95703125" xlink:href="#ArialMT-6d"/>
      <use x="1139.2578125" xlink:href="#ArialMT-61"/>
      <use x="1194.873046875" xlink:href="#ArialMT-74"/>
      <use x="1222.65625" xlink:href="#ArialMT-72"/>
      <use x="1255.95703125" xlink:href="#ArialMT-69"/>
      <use x="1278.173828125" xlink:href="#ArialMT-78"/>
     </g>
    </g>
    <g id="line2d_66"/>
    <g id="line2d_67">
     <g>
      <use style="fill:#7357db;" x="100.0" xlink:href="#m953343bbed" y="197.6828125"/>
     </g>
    </g>
    <g id="text_14">
     <!-- PCO Portus Cosanus Void -->
     <g style="fill:#262626;" transform="translate(118.0 201.1828125)scale(0.1 -0.1)">
      <use xlink:href="#ArialMT-50"/>
      <use x="66.69921875" xlink:href="#ArialMT-43"/>
      <use x="138.916015625" xlink:href="#ArialMT-4f"/>
      <use x="216.69921875" xlink:href="#ArialMT-20"/>
      <use x="244.482421875" xlink:href="#ArialMT-50"/>
      <use x="311.181640625" xlink:href="#ArialMT-6f"/>
      <use x="366.796875" xlink:href="#ArialMT-72"/>
      <use x="400.09765625" xlink:href="#ArialMT-74"/>
      <use x="427.880859375" xlink:href="#ArialMT-75"/>
      <use x="483.49609375" xlink:href="#ArialMT-73"/>
      <use x="533.49609375" xlink:href="#ArialMT-20"/>
      <use x="561.279296875" xlink:href="#ArialMT-43"/>
      <use x="633.49609375" xlink:href="#ArialMT-6f"/>
      <use x="689.111328125" xlink:href="#ArialMT-73"/>
      <use x="739.111328125" xlink:href="#ArialMT-61"/>
      <use x="794.7265625" xlink:href="#ArialMT-6e"/>
      <use x="850.341796875" xlink:href="#ArialMT-75"/>
      <use x="905.95703125" xlink:href="#ArialMT-73"/>
      <use x="955.95703125" xlink:href="#ArialMT-20"/>
      <use x="983.740234375" xlink:href="#ArialMT-56"/>
      <use x="1050.361328125" xlink:href="#ArialMT-6f"/>
      <use x="1105.9765625" xlink:href="#ArialMT-69"/>
      <use x="1128.193359375" xlink:href="#ArialMT-64"/>
     </g>
    </g>
    <g id="line2d_68"/>
    <g id="line2d_69">
     <g>
      <use style="fill:#b057db;" x="100.0" xlink:href="#mbd1f427075" y="211.828125"/>
     </g>
    </g>
    <g id="text_15">
     <!-- PTR Portus Traianus Void -->
     <defs>
      <path d="M 7.859375 0 
L 7.859375 71.578125 
L 39.59375 71.578125 
Q 49.171875 71.578125 54.140625 69.640625 
Q 59.125 67.71875 62.109375 62.828125 
Q 65.09375 57.953125 65.09375 52.046875 
Q 65.09375 44.4375 60.15625 39.203125 
Q 55.21875 33.984375 44.921875 32.5625 
Q 48.6875 30.765625 50.640625 29 
Q 54.78125 25.203125 58.5 19.484375 
L 70.953125 0 
L 59.03125 0 
L 49.5625 14.890625 
Q 45.40625 21.34375 42.71875 24.75 
Q 40.046875 28.171875 37.921875 29.53125 
Q 35.796875 30.90625 33.59375 31.453125 
Q 31.984375 31.78125 28.328125 31.78125 
L 17.328125 31.78125 
L 17.328125 0 
z
M 17.328125 39.984375 
L 37.703125 39.984375 
Q 44.1875 39.984375 47.84375 41.328125 
Q 51.515625 42.671875 53.421875 45.625 
Q 55.328125 48.578125 55.328125 52.046875 
Q 55.328125 57.125 51.640625 60.390625 
Q 47.953125 63.671875 39.984375 63.671875 
L 17.328125 63.671875 
z
" id="ArialMT-52"/>
     </defs>
     <g style="fill:#262626;" transform="translate(118.0 215.328125)scale(0.1 -0.1)">
      <use xlink:href="#ArialMT-50"/>
      <use x="66.69921875" xlink:href="#ArialMT-54"/>
      <use x="127.783203125" xlink:href="#ArialMT-52"/>
      <use x="200.0" xlink:href="#ArialMT-20"/>
      <use x="227.783203125" xlink:href="#ArialMT-50"/>
      <use x="294.482421875" xlink:href="#ArialMT-6f"/>
      <use x="350.09765625" xlink:href="#ArialMT-72"/>
      <use x="383.3984375" xlink:href="#ArialMT-74"/>
      <use x="411.181640625" xlink:href="#ArialMT-75"/>
      <use x="466.796875" xlink:href="#ArialMT-73"/>
      <use x="516.796875" xlink:href="#ArialMT-20"/>
      <use x="544.564453125" xlink:href="#ArialMT-54"/>
      <use x="605.6015625" xlink:href="#ArialMT-72"/>
      <use x="638.90234375" xlink:href="#ArialMT-61"/>
      <use x="694.517578125" xlink:href="#ArialMT-69"/>
      <use x="716.734375" xlink:href="#ArialMT-61"/>
      <use x="772.349609375" xlink:href="#ArialMT-6e"/>
      <use x="827.96484375" xlink:href="#ArialMT-75"/>
      <use x="883.580078125" xlink:href="#ArialMT-73"/>
      <use x="933.580078125" xlink:href="#ArialMT-20"/>
      <use x="961.36328125" xlink:href="#ArialMT-56"/>
      <use x="1027.984375" xlink:href="#ArialMT-6f"/>
      <use x="1083.599609375" xlink:href="#ArialMT-69"/>
      <use x="1105.81640625" xlink:href="#ArialMT-64"/>
     </g>
    </g>
    <g id="line2d_70"/>
    <g id="line2d_71">
     <g>
      <use style="fill:#db57c9;" x="100.0" xlink:href="#m53e914fdab" y="225.9734375"/>
     </g>
    </g>
    <g id="text_16">
     <!-- TL Trajans Markets -->
     <defs>
      <path d="M 7.328125 0 
L 7.328125 71.578125 
L 16.796875 71.578125 
L 16.796875 8.453125 
L 52.046875 8.453125 
L 52.046875 0 
z
" id="ArialMT-4c"/>
      <path d="M 6.546875 61.375 
L 6.546875 71.578125 
L 15.328125 71.578125 
L 15.328125 61.375 
z
M -4.59375 -20.125 
L -2.9375 -12.640625 
Q -0.296875 -13.328125 1.21875 -13.328125 
Q 3.90625 -13.328125 5.21875 -11.546875 
Q 6.546875 -9.765625 6.546875 -2.640625 
L 6.546875 51.859375 
L 15.328125 51.859375 
L 15.328125 -2.828125 
Q 15.328125 -12.40625 12.84375 -16.15625 
Q 9.671875 -21.046875 2.296875 -21.046875 
Q -1.265625 -21.046875 -4.59375 -20.125 
" id="ArialMT-6a"/>
     </defs>
     <g style="fill:#262626;" transform="translate(118.0 229.4734375)scale(0.1 -0.1)">
      <use xlink:href="#ArialMT-54"/>
      <use x="61.083984375" xlink:href="#ArialMT-4c"/>
      <use x="116.65234375" xlink:href="#ArialMT-20"/>
      <use x="144.419921875" xlink:href="#ArialMT-54"/>
      <use x="205.45703125" xlink:href="#ArialMT-72"/>
      <use x="238.7578125" xlink:href="#ArialMT-61"/>
      <use x="294.373046875" xlink:href="#ArialMT-6a"/>
      <use x="316.58984375" xlink:href="#ArialMT-61"/>
      <use x="372.205078125" xlink:href="#ArialMT-6e"/>
      <use x="427.8203125" xlink:href="#ArialMT-73"/>
      <use x="477.8203125" xlink:href="#ArialMT-20"/>
      <use x="505.603515625" xlink:href="#ArialMT-4d"/>
      <use x="588.904296875" xlink:href="#ArialMT-61"/>
      <use x="644.51953125" xlink:href="#ArialMT-72"/>
      <use x="677.8203125" xlink:href="#ArialMT-6b"/>
      <use x="727.8203125" xlink:href="#ArialMT-65"/>
      <use x="783.435546875" xlink:href="#ArialMT-74"/>
      <use x="811.21875" xlink:href="#ArialMT-73"/>
     </g>
    </g>
   </g>
  </g>
 </g>
 <defs>
  <clipPath id="p77204cfd00">
   <rect height="446.4" width="502.2" x="81.0" y="57.6"/>
  </clipPath>
 </defs>
</svg>
