<?xml version="1.0" encoding="utf-8" standalone="no"?>
<!DOCTYPE svg PUBLIC "-//W3C//DTD SVG 1.1//EN"
  "http://www.w3.org/Graphics/SVG/1.1/DTD/svg11.dtd">
<!-- Created with matplotlib (http://matplotlib.org/) -->
<svg height="576pt" version="1.1" viewBox="0 0 648 576" width="648pt" xmlns="http://www.w3.org/2000/svg" xmlns:xlink="http://www.w3.org/1999/xlink">
 <defs>
  <style type="text/css">
*{stroke-linecap:butt;stroke-linejoin:round;stroke-miterlimit:100000;}
  </style>
 </defs>
 <g id="figure_1">
  <g id="patch_1">
   <path d="M 0 576 
L 648 576 
L 648 0 
L 0 0 
z
" style="fill:#ffffff;"/>
  </g>
  <g id="axes_1">
   <g id="patch_2">
    <path d="M 81 504 
L 583.2 504 
L 583.2 57.6 
L 81 57.6 
z
" style="fill:#ffffff;"/>
   </g>
   <g id="matplotlib.axis_1"/>
   <g id="matplotlib.axis_2"/>
   <g id="line2d_1">
    <path clip-path="url(#p1eef1d52d2)" d="M 332.1 72.76626 
L 560.372727 459.36 
" style="fill:none;stroke:#000000;stroke-linecap:round;"/>
   </g>
   <g id="line2d_2">
    <path clip-path="url(#p1eef1d52d2)" d="M 103.827273 459.36 
L 560.372727 459.36 
" style="fill:none;stroke:#000000;stroke-linecap:round;"/>
   </g>
   <g id="line2d_3">
    <path clip-path="url(#p1eef1d52d2)" d="M 332.1 72.76626 
L 103.827273 459.36 
" style="fill:none;stroke:#000000;stroke-linecap:round;"/>
   </g>
   <g id="line2d_4">
    <path clip-path="url(#p1eef1d52d2)" d="M 332.1 72.76626 
L 560.372727 459.36 
" style="fill:none;stroke:#0000ff;stroke-linecap:round;stroke-width:0.5;"/>
   </g>
   <g id="line2d_5">
    <path clip-path="url(#p1eef1d52d2)" d="M 309.272727 111.425634 
L 514.718182 459.36 
" style="fill:none;stroke:#0000ff;stroke-linecap:round;stroke-width:0.5;"/>
   </g>
   <g id="line2d_6">
    <path clip-path="url(#p1eef1d52d2)" d="M 286.445455 150.085008 
L 469.063636 459.36 
" style="fill:none;stroke:#0000ff;stroke-linecap:round;stroke-width:0.5;"/>
   </g>
   <g id="line2d_7">
    <path clip-path="url(#p1eef1d52d2)" d="M 263.618182 188.744382 
L 423.409091 459.36 
" style="fill:none;stroke:#0000ff;stroke-linecap:round;stroke-width:0.5;"/>
   </g>
   <g id="line2d_8">
    <path clip-path="url(#p1eef1d52d2)" d="M 240.790909 227.403756 
L 377.754545 459.36 
" style="fill:none;stroke:#0000ff;stroke-linecap:round;stroke-width:0.5;"/>
   </g>
   <g id="line2d_9">
    <path clip-path="url(#p1eef1d52d2)" d="M 217.963636 266.06313 
L 332.1 459.36 
" style="fill:none;stroke:#0000ff;stroke-linecap:round;stroke-width:0.5;"/>
   </g>
   <g id="line2d_10">
    <path clip-path="url(#p1eef1d52d2)" d="M 195.136364 304.722504 
L 286.445455 459.36 
" style="fill:none;stroke:#0000ff;stroke-linecap:round;stroke-width:0.5;"/>
   </g>
   <g id="line2d_11">
    <path clip-path="url(#p1eef1d52d2)" d="M 172.309091 343.381878 
L 240.790909 459.36 
" style="fill:none;stroke:#0000ff;stroke-linecap:round;stroke-width:0.5;"/>
   </g>
   <g id="line2d_12">
    <path clip-path="url(#p1eef1d52d2)" d="M 149.481818 382.041252 
L 195.136364 459.36 
" style="fill:none;stroke:#0000ff;stroke-linecap:round;stroke-width:0.5;"/>
   </g>
   <g id="line2d_13">
    <path clip-path="url(#p1eef1d52d2)" d="M 126.654545 420.700626 
L 149.481818 459.36 
" style="fill:none;stroke:#0000ff;stroke-linecap:round;stroke-width:0.5;"/>
   </g>
   <g id="line2d_14">
    <path clip-path="url(#p1eef1d52d2)" d="M 103.827273 459.36 
L 560.372727 459.36 
" style="fill:none;stroke:#0000ff;stroke-linecap:round;stroke-width:0.5;"/>
   </g>
   <g id="line2d_15">
    <path clip-path="url(#p1eef1d52d2)" d="M 332.1 72.76626 
L 103.827273 459.36 
" style="fill:none;stroke:#0000ff;stroke-linecap:round;stroke-width:0.5;"/>
   </g>
   <g id="line2d_16">
    <path clip-path="url(#p1eef1d52d2)" d="M 126.654545 420.700626 
L 537.545455 420.700626 
" style="fill:none;stroke:#0000ff;stroke-linecap:round;stroke-width:0.5;"/>
   </g>
   <g id="line2d_17">
    <path clip-path="url(#p1eef1d52d2)" d="M 354.927273 111.425634 
L 149.481818 459.36 
" style="fill:none;stroke:#0000ff;stroke-linecap:round;stroke-width:0.5;"/>
   </g>
   <g id="line2d_18">
    <path clip-path="url(#p1eef1d52d2)" d="M 149.481818 382.041252 
L 514.718182 382.041252 
" style="fill:none;stroke:#0000ff;stroke-linecap:round;stroke-width:0.5;"/>
   </g>
   <g id="line2d_19">
    <path clip-path="url(#p1eef1d52d2)" d="M 377.754545 150.085008 
L 195.136364 459.36 
" style="fill:none;stroke:#0000ff;stroke-linecap:round;stroke-width:0.5;"/>
   </g>
   <g id="line2d_20">
    <path clip-path="url(#p1eef1d52d2)" d="M 172.309091 343.381878 
L 491.890909 343.381878 
" style="fill:none;stroke:#0000ff;stroke-linecap:round;stroke-width:0.5;"/>
   </g>
   <g id="line2d_21">
    <path clip-path="url(#p1eef1d52d2)" d="M 400.581818 188.744382 
L 240.790909 459.36 
" style="fill:none;stroke:#0000ff;stroke-linecap:round;stroke-width:0.5;"/>
   </g>
   <g id="line2d_22">
    <path clip-path="url(#p1eef1d52d2)" d="M 195.136364 304.722504 
L 469.063636 304.722504 
" style="fill:none;stroke:#0000ff;stroke-linecap:round;stroke-width:0.5;"/>
   </g>
   <g id="line2d_23">
    <path clip-path="url(#p1eef1d52d2)" d="M 423.409091 227.403756 
L 286.445455 459.36 
" style="fill:none;stroke:#0000ff;stroke-linecap:round;stroke-width:0.5;"/>
   </g>
   <g id="line2d_24">
    <path clip-path="url(#p1eef1d52d2)" d="M 217.963636 266.06313 
L 446.236364 266.06313 
" style="fill:none;stroke:#0000ff;stroke-linecap:round;stroke-width:0.5;"/>
   </g>
   <g id="line2d_25">
    <path clip-path="url(#p1eef1d52d2)" d="M 446.236364 266.06313 
L 332.1 459.36 
" style="fill:none;stroke:#0000ff;stroke-linecap:round;stroke-width:0.5;"/>
   </g>
   <g id="line2d_26">
    <path clip-path="url(#p1eef1d52d2)" d="M 240.790909 227.403756 
L 423.409091 227.403756 
" style="fill:none;stroke:#0000ff;stroke-linecap:round;stroke-width:0.5;"/>
   </g>
   <g id="line2d_27">
    <path clip-path="url(#p1eef1d52d2)" d="M 469.063636 304.722504 
L 377.754545 459.36 
" style="fill:none;stroke:#0000ff;stroke-linecap:round;stroke-width:0.5;"/>
   </g>
   <g id="line2d_28">
    <path clip-path="url(#p1eef1d52d2)" d="M 263.618182 188.744382 
L 400.581818 188.744382 
" style="fill:none;stroke:#0000ff;stroke-linecap:round;stroke-width:0.5;"/>
   </g>
   <g id="line2d_29">
    <path clip-path="url(#p1eef1d52d2)" d="M 491.890909 343.381878 
L 423.409091 459.36 
" style="fill:none;stroke:#0000ff;stroke-linecap:round;stroke-width:0.5;"/>
   </g>
   <g id="line2d_30">
    <path clip-path="url(#p1eef1d52d2)" d="M 286.445455 150.085008 
L 377.754545 150.085008 
" style="fill:none;stroke:#0000ff;stroke-linecap:round;stroke-width:0.5;"/>
   </g>
   <g id="line2d_31">
    <path clip-path="url(#p1eef1d52d2)" d="M 514.718182 382.041252 
L 469.063636 459.36 
" style="fill:none;stroke:#0000ff;stroke-linecap:round;stroke-width:0.5;"/>
   </g>
   <g id="line2d_32">
    <path clip-path="url(#p1eef1d52d2)" d="M 309.272727 111.425634 
L 354.927273 111.425634 
" style="fill:none;stroke:#0000ff;stroke-linecap:round;stroke-width:0.5;"/>
   </g>
   <g id="line2d_33">
    <path clip-path="url(#p1eef1d52d2)" d="M 537.545455 420.700626 
L 514.718182 459.36 
" style="fill:none;stroke:#0000ff;stroke-linecap:round;stroke-width:0.5;"/>
   </g>
   <g id="line2d_34">
    <path clip-path="url(#p1eef1d52d2)" d="M 332.1 72.76626 
L 332.1 72.76626 
" style="fill:none;stroke:#0000ff;stroke-linecap:round;stroke-width:0.5;"/>
   </g>
   <g id="line2d_35">
    <path clip-path="url(#p1eef1d52d2)" d="M 560.372727 459.36 
L 560.372727 459.36 
" style="fill:none;stroke:#0000ff;stroke-linecap:round;stroke-width:0.5;"/>
   </g>
   <g id="line2d_36">
    <defs>
     <path d="M 0 3.5 
C 0.928211 3.5 1.81853 3.131218 2.474874 2.474874 
C 3.131218 1.81853 3.5 0.928211 3.5 0 
C 3.5 -0.928211 3.131218 -1.81853 2.474874 -2.474874 
C 1.81853 -3.131218 0.928211 -3.5 0 -3.5 
C -0.928211 -3.5 -1.81853 -3.131218 -2.474874 -2.474874 
C -3.131218 -1.81853 -3.5 -0.928211 -3.5 0 
C -3.5 0.928211 -3.131218 1.81853 -2.474874 2.474874 
C -1.81853 3.131218 -0.928211 3.5 0 3.5 
z
" id="me65c941fda"/>
    </defs>
    <g clip-path="url(#p1eef1d52d2)">
     <use style="fill:#db5f57;" x="228.845281202" xlink:href="#me65c941fda" y="252.399811051"/>
     <use style="fill:#db5f57;" x="223.710255609" xlink:href="#me65c941fda" y="256.330880849"/>
    </g>
   </g>
   <g id="line2d_37">
    <defs>
     <path d="M 0 3.5 
C 0.928211 3.5 1.81853 3.131218 2.474874 2.474874 
C 3.131218 1.81853 3.5 0.928211 3.5 0 
C 3.5 -0.928211 3.131218 -1.81853 2.474874 -2.474874 
C 1.81853 -3.131218 0.928211 -3.5 0 -3.5 
C -0.928211 -3.5 -1.81853 -3.131218 -2.474874 -2.474874 
C -3.131218 -1.81853 -3.5 -0.928211 -3.5 0 
C -3.5 0.928211 -3.131218 1.81853 -2.474874 2.474874 
C -1.81853 3.131218 -0.928211 3.5 0 3.5 
z
" id="mc57d0302f6"/>
    </defs>
    <g clip-path="url(#p1eef1d52d2)">
     <use style="fill:#dbc257;" x="224.707162165" xlink:href="#mc57d0302f6" y="256.125750019"/>
     <use style="fill:#dbc257;" x="228.79540107" xlink:href="#mc57d0302f6" y="248.097891358"/>
     <use style="fill:#dbc257;" x="228.093816135" xlink:href="#mc57d0302f6" y="251.807748102"/>
     <use style="fill:#dbc257;" x="231.11775175" xlink:href="#mc57d0302f6" y="250.790050555"/>
    </g>
   </g>
   <g id="line2d_38">
    <defs>
     <path d="M 0 3.5 
C 0.928211 3.5 1.81853 3.131218 2.474874 2.474874 
C 3.131218 1.81853 3.5 0.928211 3.5 0 
C 3.5 -0.928211 3.131218 -1.81853 2.474874 -2.474874 
C 1.81853 -3.131218 0.928211 -3.5 0 -3.5 
C -0.928211 -3.5 -1.81853 -3.131218 -2.474874 -2.474874 
C -3.131218 -1.81853 -3.5 -0.928211 -3.5 0 
C -3.5 0.928211 -3.131218 1.81853 -2.474874 2.474874 
C -1.81853 3.131218 -0.928211 3.5 0 3.5 
z
" id="me4e50357ba"/>
    </defs>
    <g clip-path="url(#p1eef1d52d2)">
     <use style="fill:#91db57;" x="234.990783534" xlink:href="#me4e50357ba" y="249.946878187"/>
    </g>
   </g>
   <g id="line2d_39">
    <defs>
     <path d="M 0 3.5 
C 0.928211 3.5 1.81853 3.131218 2.474874 2.474874 
C 3.131218 1.81853 3.5 0.928211 3.5 0 
C 3.5 -0.928211 3.131218 -1.81853 2.474874 -2.474874 
C 1.81853 -3.131218 0.928211 -3.5 0 -3.5 
C -0.928211 -3.5 -1.81853 -3.131218 -2.474874 -2.474874 
C -3.131218 -1.81853 -3.5 -0.928211 -3.5 0 
C -3.5 0.928211 -3.131218 1.81853 -2.474874 2.474874 
C -1.81853 3.131218 -0.928211 3.5 0 3.5 
z
" id="mdf6e528119"/>
    </defs>
    <g clip-path="url(#p1eef1d52d2)">
     <use style="fill:#57db80;" x="244.401868333" xlink:href="#mdf6e528119" y="232.59819269"/>
     <use style="fill:#57db80;" x="246.059480137" xlink:href="#mdf6e528119" y="231.494996148"/>
     <use style="fill:#57db80;" x="248.106690029" xlink:href="#mdf6e528119" y="232.091979822"/>
     <use style="fill:#57db80;" x="243.309913178" xlink:href="#mdf6e528119" y="235.186921391"/>
     <use style="fill:#57db80;" x="250.396967091" xlink:href="#mdf6e528119" y="228.509378202"/>
    </g>
   </g>
   <g id="line2d_40">
    <defs>
     <path d="M 0 3.5 
C 0.928211 3.5 1.81853 3.131218 2.474874 2.474874 
C 3.131218 1.81853 3.5 0.928211 3.5 0 
C 3.5 -0.928211 3.131218 -1.81853 2.474874 -2.474874 
C 1.81853 -3.131218 0.928211 -3.5 0 -3.5 
C -0.928211 -3.5 -1.81853 -3.131218 -2.474874 -2.474874 
C -3.131218 -1.81853 -3.5 -0.928211 -3.5 0 
C -3.5 0.928211 -3.131218 1.81853 -2.474874 2.474874 
C -1.81853 3.131218 -0.928211 3.5 0 3.5 
z
" id="m365807c9c6"/>
    </defs>
    <g clip-path="url(#p1eef1d52d2)">
     <use style="fill:#57d3db;" x="232.058013986" xlink:href="#m365807c9c6" y="243.06575866"/>
     <use style="fill:#57d3db;" x="231.562463584" xlink:href="#m365807c9c6" y="243.668011808"/>
     <use style="fill:#57d3db;" x="230.341278095" xlink:href="#m365807c9c6" y="246.051871283"/>
    </g>
   </g>
   <g id="line2d_41">
    <defs>
     <path d="M 0 3.5 
C 0.928211 3.5 1.81853 3.131218 2.474874 2.474874 
C 3.131218 1.81853 3.5 0.928211 3.5 0 
C 3.5 -0.928211 3.131218 -1.81853 2.474874 -2.474874 
C 1.81853 -3.131218 0.928211 -3.5 0 -3.5 
C -0.928211 -3.5 -1.81853 -3.131218 -2.474874 -2.474874 
C -3.131218 -1.81853 -3.5 -0.928211 -3.5 0 
C -3.5 0.928211 -3.131218 1.81853 -2.474874 2.474874 
C -1.81853 3.131218 -0.928211 3.5 0 3.5 
z
" id="m27fe206b36"/>
    </defs>
    <g clip-path="url(#p1eef1d52d2)">
     <use style="fill:#5770db;" x="244.791565136" xlink:href="#m27fe206b36" y="247.809528532"/>
     <use style="fill:#5770db;" x="245.873065225" xlink:href="#m27fe206b36" y="251.771457115"/>
     <use style="fill:#5770db;" x="237.084806974" xlink:href="#m27fe206b36" y="254.314289165"/>
     <use style="fill:#5770db;" x="238.498630658" xlink:href="#m27fe206b36" y="252.776136412"/>
    </g>
   </g>
   <g id="line2d_42">
    <defs>
     <path d="M 0 3.5 
C 0.928211 3.5 1.81853 3.131218 2.474874 2.474874 
C 3.131218 1.81853 3.5 0.928211 3.5 0 
C 3.5 -0.928211 3.131218 -1.81853 2.474874 -2.474874 
C 1.81853 -3.131218 0.928211 -3.5 0 -3.5 
C -0.928211 -3.5 -1.81853 -3.131218 -2.474874 -2.474874 
C -3.131218 -1.81853 -3.5 -0.928211 -3.5 0 
C -3.5 0.928211 -3.131218 1.81853 -2.474874 2.474874 
C -1.81853 3.131218 -0.928211 3.5 0 3.5 
z
" id="m055d6946ad"/>
    </defs>
    <g clip-path="url(#p1eef1d52d2)">
     <use style="fill:#a157db;" x="242.665316878" xlink:href="#m055d6946ad" y="247.439313422"/>
     <use style="fill:#a157db;" x="241.434327744" xlink:href="#m055d6946ad" y="248.505148565"/>
    </g>
   </g>
   <g id="line2d_43">
    <defs>
     <path d="M 0 3.5 
C 0.928211 3.5 1.81853 3.131218 2.474874 2.474874 
C 3.131218 1.81853 3.5 0.928211 3.5 0 
C 3.5 -0.928211 3.131218 -1.81853 2.474874 -2.474874 
C 1.81853 -3.131218 0.928211 -3.5 0 -3.5 
C -0.928211 -3.5 -1.81853 -3.131218 -2.474874 -2.474874 
C -3.131218 -1.81853 -3.5 -0.928211 -3.5 0 
C -3.5 0.928211 -3.131218 1.81853 -2.474874 2.474874 
C -1.81853 3.131218 -0.928211 3.5 0 3.5 
z
" id="m4895fafd7f"/>
    </defs>
    <g clip-path="url(#p1eef1d52d2)">
     <use style="fill:#db57b2;" x="228.905799115" xlink:href="#m4895fafd7f" y="247.531912085"/>
    </g>
   </g>
   <g id="patch_3">
    <path d="M 81 504 
L 81 57.6 
" style="fill:none;stroke:#262626;stroke-linecap:square;stroke-linejoin:miter;stroke-width:1.25;"/>
   </g>
   <g id="patch_4">
    <path d="M 583.2 504 
L 583.2 57.6 
" style="fill:none;stroke:#262626;stroke-linecap:square;stroke-linejoin:miter;stroke-width:1.25;"/>
   </g>
   <g id="patch_5">
    <path d="M 81 57.6 
L 583.2 57.6 
" style="fill:none;stroke:#262626;stroke-linecap:square;stroke-linejoin:miter;stroke-width:1.25;"/>
   </g>
   <g id="patch_6">
    <path d="M 81 504 
L 583.2 504 
" style="fill:none;stroke:#262626;stroke-linecap:square;stroke-linejoin:miter;stroke-width:1.25;"/>
   </g>
   <g id="text_1">
    <!-- Ca -->
    <defs>
     <path d="M 17.4375 36.03125 
L 4.984375 38.28125 
Q 7.078125 45.796875 12.203125 49.40625 
Q 17.328125 53.03125 27.4375 53.03125 
Q 36.625 53.03125 41.109375 50.859375 
Q 45.609375 48.6875 47.4375 45.34375 
Q 49.265625 42 49.265625 33.0625 
L 49.125 17.046875 
Q 49.125 10.203125 49.78125 6.953125 
Q 50.4375 3.71875 52.25 0 
L 38.671875 0 
Q 38.140625 1.375 37.359375 4.046875 
Q 37.015625 5.28125 36.859375 5.671875 
Q 33.34375 2.25 29.34375 0.53125 
Q 25.34375 -1.171875 20.796875 -1.171875 
Q 12.796875 -1.171875 8.171875 3.171875 
Q 3.5625 7.515625 3.5625 14.15625 
Q 3.5625 18.5625 5.65625 22 
Q 7.765625 25.4375 11.546875 27.265625 
Q 15.328125 29.109375 22.46875 30.46875 
Q 32.078125 32.28125 35.796875 33.84375 
L 35.796875 35.203125 
Q 35.796875 39.15625 33.84375 40.84375 
Q 31.890625 42.53125 26.46875 42.53125 
Q 22.796875 42.53125 20.75 41.09375 
Q 18.703125 39.65625 17.4375 36.03125 
M 35.796875 24.90625 
Q 33.15625 24.03125 27.4375 22.796875 
Q 21.734375 21.578125 19.96875 20.40625 
Q 17.28125 18.5 17.28125 15.578125 
Q 17.28125 12.703125 19.421875 10.59375 
Q 21.578125 8.5 24.90625 8.5 
Q 28.609375 8.5 31.984375 10.9375 
Q 34.46875 12.796875 35.25 15.484375 
Q 35.796875 17.234375 35.796875 22.171875 
z
" id="Arial-BoldMT-61"/>
     <path d="M 53.078125 26.3125 
L 67.09375 21.875 
Q 63.875 10.15625 56.375 4.46875 
Q 48.875 -1.21875 37.359375 -1.21875 
Q 23.09375 -1.21875 13.90625 8.515625 
Q 4.734375 18.265625 4.734375 35.15625 
Q 4.734375 53.03125 13.953125 62.90625 
Q 23.1875 72.796875 38.234375 72.796875 
Q 51.375 72.796875 59.578125 65.046875 
Q 64.453125 60.453125 66.890625 51.859375 
L 52.59375 48.4375 
Q 51.3125 54 47.28125 57.21875 
Q 43.265625 60.453125 37.5 60.453125 
Q 29.546875 60.453125 24.578125 54.734375 
Q 19.625 49.03125 19.625 36.234375 
Q 19.625 22.65625 24.5 16.890625 
Q 29.390625 11.140625 37.203125 11.140625 
Q 42.96875 11.140625 47.109375 14.796875 
Q 51.265625 18.453125 53.078125 26.3125 
" id="Arial-BoldMT-43"/>
    </defs>
    <g transform="translate(82.4612215909 481.68)scale(0.12 -0.12)">
     <use xlink:href="#Arial-BoldMT-43"/>
     <use x="72.216796875" xlink:href="#Arial-BoldMT-61"/>
    </g>
   </g>
   <g id="text_2">
    <!-- Na+K -->
    <defs>
     <path d="M 22.90625 10.296875 
L 22.90625 28.90625 
L 4.15625 28.90625 
L 4.15625 41.75 
L 22.90625 41.75 
L 22.90625 60.359375 
L 35.40625 60.359375 
L 35.40625 41.75 
L 54.203125 41.75 
L 54.203125 28.90625 
L 35.40625 28.90625 
L 35.40625 10.296875 
z
" id="Arial-BoldMT-2b"/>
     <path d="M 7.421875 0 
L 7.421875 71.578125 
L 21.484375 71.578125 
L 50.78125 23.78125 
L 50.78125 71.578125 
L 64.203125 71.578125 
L 64.203125 0 
L 49.703125 0 
L 20.84375 46.6875 
L 20.84375 0 
z
" id="Arial-BoldMT-4e"/>
     <path d="M 7.46875 0 
L 7.46875 71.578125 
L 21.921875 71.578125 
L 21.921875 39.796875 
L 51.125 71.578125 
L 70.5625 71.578125 
L 43.609375 43.703125 
L 72.015625 0 
L 53.328125 0 
L 33.640625 33.59375 
L 21.921875 21.625 
L 21.921875 0 
z
" id="Arial-BoldMT-4b"/>
    </defs>
    <g transform="translate(558.561903409 481.68)scale(0.12 -0.12)">
     <use xlink:href="#Arial-BoldMT-4e"/>
     <use x="72.216796875" xlink:href="#Arial-BoldMT-61"/>
     <use x="127.83203125" xlink:href="#Arial-BoldMT-2b"/>
     <use x="186.23046875" xlink:href="#Arial-BoldMT-4b"/>
    </g>
   </g>
   <g id="text_3">
    <!-- Si -->
    <defs>
     <path d="M 3.609375 23.296875 
L 17.671875 24.65625 
Q 18.953125 17.578125 22.828125 14.25 
Q 26.703125 10.9375 33.296875 10.9375 
Q 40.28125 10.9375 43.8125 13.890625 
Q 47.359375 16.84375 47.359375 20.796875 
Q 47.359375 23.34375 45.875 25.125 
Q 44.390625 26.90625 40.671875 28.21875 
Q 38.140625 29.109375 29.109375 31.34375 
Q 17.484375 34.234375 12.796875 38.421875 
Q 6.203125 44.34375 6.203125 52.828125 
Q 6.203125 58.296875 9.296875 63.0625 
Q 12.40625 67.828125 18.234375 70.3125 
Q 24.078125 72.796875 32.328125 72.796875 
Q 45.796875 72.796875 52.609375 66.890625 
Q 59.421875 60.984375 59.765625 51.125 
L 45.3125 50.484375 
Q 44.390625 56 41.328125 58.421875 
Q 38.28125 60.84375 32.171875 60.84375 
Q 25.875 60.84375 22.3125 58.25 
Q 20.015625 56.59375 20.015625 53.8125 
Q 20.015625 51.265625 22.171875 49.46875 
Q 24.90625 47.171875 35.453125 44.671875 
Q 46 42.1875 51.046875 39.515625 
Q 56.109375 36.859375 58.953125 32.25 
Q 61.8125 27.640625 61.8125 20.84375 
Q 61.8125 14.703125 58.390625 9.328125 
Q 54.984375 3.953125 48.734375 1.34375 
Q 42.484375 -1.265625 33.15625 -1.265625 
Q 19.578125 -1.265625 12.296875 5 
Q 5.03125 11.28125 3.609375 23.296875 
" id="Arial-BoldMT-53"/>
     <path d="M 7.171875 58.890625 
L 7.171875 71.578125 
L 20.90625 71.578125 
L 20.90625 58.890625 
z
M 7.171875 0 
L 7.171875 51.859375 
L 20.90625 51.859375 
L 20.90625 0 
z
" id="Arial-BoldMT-69"/>
    </defs>
    <g transform="translate(326.4309375 66.528)scale(0.12 -0.12)">
     <use xlink:href="#Arial-BoldMT-53"/>
     <use x="66.69921875" xlink:href="#Arial-BoldMT-69"/>
    </g>
   </g>
   <g id="text_4">
    <!-- Tobermorite - Literature -->
    <defs>
     <path d="M 42.09375 16.703125 
L 51.171875 15.578125 
Q 49.03125 7.625 43.21875 3.21875 
Q 37.40625 -1.171875 28.375 -1.171875 
Q 17 -1.171875 10.328125 5.828125 
Q 3.65625 12.84375 3.65625 25.484375 
Q 3.65625 38.578125 10.390625 45.796875 
Q 17.140625 53.03125 27.875 53.03125 
Q 38.28125 53.03125 44.875 45.953125 
Q 51.46875 38.875 51.46875 26.03125 
Q 51.46875 25.25 51.421875 23.6875 
L 12.75 23.6875 
Q 13.234375 15.140625 17.578125 10.59375 
Q 21.921875 6.0625 28.421875 6.0625 
Q 33.25 6.0625 36.671875 8.59375 
Q 40.09375 11.140625 42.09375 16.703125 
M 13.234375 30.90625 
L 42.1875 30.90625 
Q 41.609375 37.453125 38.875 40.71875 
Q 34.671875 45.796875 27.984375 45.796875 
Q 21.921875 45.796875 17.796875 41.75 
Q 13.671875 37.703125 13.234375 30.90625 
" id="ArialMT-65"/>
     <path d="M 25.921875 0 
L 25.921875 63.140625 
L 2.34375 63.140625 
L 2.34375 71.578125 
L 59.078125 71.578125 
L 59.078125 63.140625 
L 35.40625 63.140625 
L 35.40625 0 
z
" id="ArialMT-54"/>
     <path id="ArialMT-20"/>
     <path d="M 6.59375 0 
L 6.59375 51.859375 
L 14.453125 51.859375 
L 14.453125 44.578125 
Q 16.890625 48.390625 20.9375 50.703125 
Q 25 53.03125 30.171875 53.03125 
Q 35.9375 53.03125 39.625 50.640625 
Q 43.3125 48.25 44.828125 43.953125 
Q 50.984375 53.03125 60.84375 53.03125 
Q 68.5625 53.03125 72.703125 48.75 
Q 76.859375 44.484375 76.859375 35.59375 
L 76.859375 0 
L 68.109375 0 
L 68.109375 32.671875 
Q 68.109375 37.9375 67.25 40.25 
Q 66.40625 42.578125 64.15625 43.984375 
Q 61.921875 45.40625 58.890625 45.40625 
Q 53.421875 45.40625 49.796875 41.765625 
Q 46.1875 38.140625 46.1875 30.125 
L 46.1875 0 
L 37.40625 0 
L 37.40625 33.6875 
Q 37.40625 39.546875 35.25 42.46875 
Q 33.109375 45.40625 28.21875 45.40625 
Q 24.515625 45.40625 21.359375 43.453125 
Q 18.21875 41.5 16.796875 37.734375 
Q 15.375 33.984375 15.375 26.90625 
L 15.375 0 
z
" id="ArialMT-6d"/>
     <path d="M 6.5 0 
L 6.5 51.859375 
L 14.40625 51.859375 
L 14.40625 44 
Q 17.4375 49.515625 20 51.265625 
Q 22.5625 53.03125 25.640625 53.03125 
Q 30.078125 53.03125 34.671875 50.203125 
L 31.640625 42.046875 
Q 28.421875 43.953125 25.203125 43.953125 
Q 22.3125 43.953125 20.015625 42.21875 
Q 17.71875 40.484375 16.75 37.40625 
Q 15.28125 32.71875 15.28125 27.15625 
L 15.28125 0 
z
" id="ArialMT-72"/>
     <path d="M 14.703125 0 
L 6.546875 0 
L 6.546875 71.578125 
L 15.328125 71.578125 
L 15.328125 46.046875 
Q 20.90625 53.03125 29.546875 53.03125 
Q 34.328125 53.03125 38.59375 51.09375 
Q 42.875 49.171875 45.625 45.671875 
Q 48.390625 42.1875 49.953125 37.25 
Q 51.515625 32.328125 51.515625 26.703125 
Q 51.515625 13.375 44.921875 6.09375 
Q 38.328125 -1.171875 29.109375 -1.171875 
Q 19.921875 -1.171875 14.703125 6.5 
z
M 14.59375 26.3125 
Q 14.59375 17 17.140625 12.84375 
Q 21.296875 6.0625 28.375 6.0625 
Q 34.125 6.0625 38.328125 11.0625 
Q 42.53125 16.0625 42.53125 25.984375 
Q 42.53125 36.140625 38.5 40.96875 
Q 34.46875 45.796875 28.765625 45.796875 
Q 23 45.796875 18.796875 40.796875 
Q 14.59375 35.796875 14.59375 26.3125 
" id="ArialMT-62"/>
     <path d="M 7.328125 0 
L 7.328125 71.578125 
L 16.796875 71.578125 
L 16.796875 8.453125 
L 52.046875 8.453125 
L 52.046875 0 
z
" id="ArialMT-4c"/>
     <path d="M 40.578125 0 
L 40.578125 7.625 
Q 34.515625 -1.171875 24.125 -1.171875 
Q 19.53125 -1.171875 15.546875 0.578125 
Q 11.578125 2.34375 9.640625 5 
Q 7.71875 7.671875 6.9375 11.53125 
Q 6.390625 14.109375 6.390625 19.734375 
L 6.390625 51.859375 
L 15.1875 51.859375 
L 15.1875 23.09375 
Q 15.1875 16.21875 15.71875 13.8125 
Q 16.546875 10.359375 19.234375 8.375 
Q 21.921875 6.390625 25.875 6.390625 
Q 29.828125 6.390625 33.296875 8.421875 
Q 36.765625 10.453125 38.203125 13.9375 
Q 39.65625 17.4375 39.65625 24.078125 
L 39.65625 51.859375 
L 48.4375 51.859375 
L 48.4375 0 
z
" id="ArialMT-75"/>
     <path d="M 25.78125 7.859375 
L 27.046875 0.09375 
Q 23.34375 -0.6875 20.40625 -0.6875 
Q 15.625 -0.6875 12.984375 0.828125 
Q 10.359375 2.34375 9.28125 4.8125 
Q 8.203125 7.28125 8.203125 15.1875 
L 8.203125 45.015625 
L 1.765625 45.015625 
L 1.765625 51.859375 
L 8.203125 51.859375 
L 8.203125 64.703125 
L 16.9375 69.96875 
L 16.9375 51.859375 
L 25.78125 51.859375 
L 25.78125 45.015625 
L 16.9375 45.015625 
L 16.9375 14.703125 
Q 16.9375 10.9375 17.40625 9.859375 
Q 17.875 8.796875 18.921875 8.15625 
Q 19.96875 7.515625 21.921875 7.515625 
Q 23.390625 7.515625 25.78125 7.859375 
" id="ArialMT-74"/>
     <path d="M 6.640625 61.46875 
L 6.640625 71.578125 
L 15.4375 71.578125 
L 15.4375 61.46875 
z
M 6.640625 0 
L 6.640625 51.859375 
L 15.4375 51.859375 
L 15.4375 0 
z
" id="ArialMT-69"/>
     <path d="M 3.171875 21.484375 
L 3.171875 30.328125 
L 30.171875 30.328125 
L 30.171875 21.484375 
z
" id="ArialMT-2d"/>
     <path d="M 40.4375 6.390625 
Q 35.546875 2.25 31.03125 0.53125 
Q 26.515625 -1.171875 21.34375 -1.171875 
Q 12.796875 -1.171875 8.203125 3 
Q 3.609375 7.171875 3.609375 13.671875 
Q 3.609375 17.484375 5.34375 20.625 
Q 7.078125 23.78125 9.890625 25.6875 
Q 12.703125 27.59375 16.21875 28.5625 
Q 18.796875 29.25 24.03125 29.890625 
Q 34.671875 31.15625 39.703125 32.90625 
Q 39.75 34.71875 39.75 35.203125 
Q 39.75 40.578125 37.25 42.78125 
Q 33.890625 45.75 27.25 45.75 
Q 21.046875 45.75 18.09375 43.578125 
Q 15.140625 41.40625 13.71875 35.890625 
L 5.125 37.0625 
Q 6.296875 42.578125 8.984375 45.96875 
Q 11.671875 49.359375 16.75 51.1875 
Q 21.828125 53.03125 28.515625 53.03125 
Q 35.15625 53.03125 39.296875 51.46875 
Q 43.453125 49.90625 45.40625 47.53125 
Q 47.359375 45.171875 48.140625 41.546875 
Q 48.578125 39.3125 48.578125 33.453125 
L 48.578125 21.734375 
Q 48.578125 9.46875 49.140625 6.21875 
Q 49.703125 2.984375 51.375 0 
L 42.1875 0 
Q 40.828125 2.734375 40.4375 6.390625 
M 39.703125 26.03125 
Q 34.90625 24.078125 25.34375 22.703125 
Q 19.921875 21.921875 17.671875 20.9375 
Q 15.4375 19.96875 14.203125 18.09375 
Q 12.984375 16.21875 12.984375 13.921875 
Q 12.984375 10.40625 15.640625 8.0625 
Q 18.3125 5.71875 23.4375 5.71875 
Q 28.515625 5.71875 32.46875 7.9375 
Q 36.421875 10.15625 38.28125 14.015625 
Q 39.703125 17 39.703125 22.796875 
z
" id="ArialMT-61"/>
     <path d="M 3.328125 25.921875 
Q 3.328125 40.328125 11.328125 47.265625 
Q 18.015625 53.03125 27.640625 53.03125 
Q 38.328125 53.03125 45.109375 46.015625 
Q 51.90625 39.015625 51.90625 26.65625 
Q 51.90625 16.65625 48.90625 10.90625 
Q 45.90625 5.171875 40.15625 2 
Q 34.421875 -1.171875 27.640625 -1.171875 
Q 16.75 -1.171875 10.03125 5.8125 
Q 3.328125 12.796875 3.328125 25.921875 
M 12.359375 25.921875 
Q 12.359375 15.96875 16.703125 11.015625 
Q 21.046875 6.0625 27.640625 6.0625 
Q 34.1875 6.0625 38.53125 11.03125 
Q 42.875 16.015625 42.875 26.21875 
Q 42.875 35.84375 38.5 40.796875 
Q 34.125 45.75 27.640625 45.75 
Q 21.046875 45.75 16.703125 40.8125 
Q 12.359375 35.890625 12.359375 25.921875 
" id="ArialMT-6f"/>
    </defs>
    <g style="fill:#262626;" transform="translate(227.0875 52.6)scale(0.2 -0.2)">
     <use xlink:href="#ArialMT-54"/>
     <use x="60.912109375" xlink:href="#ArialMT-6f"/>
     <use x="116.52734375" xlink:href="#ArialMT-62"/>
     <use x="172.142578125" xlink:href="#ArialMT-65"/>
     <use x="227.7578125" xlink:href="#ArialMT-72"/>
     <use x="261.05859375" xlink:href="#ArialMT-6d"/>
     <use x="344.359375" xlink:href="#ArialMT-6f"/>
     <use x="399.974609375" xlink:href="#ArialMT-72"/>
     <use x="433.275390625" xlink:href="#ArialMT-69"/>
     <use x="455.4921875" xlink:href="#ArialMT-74"/>
     <use x="483.275390625" xlink:href="#ArialMT-65"/>
     <use x="538.890625" xlink:href="#ArialMT-20"/>
     <use x="566.673828125" xlink:href="#ArialMT-2d"/>
     <use x="599.974609375" xlink:href="#ArialMT-20"/>
     <use x="627.7578125" xlink:href="#ArialMT-4c"/>
     <use x="683.373046875" xlink:href="#ArialMT-69"/>
     <use x="705.58984375" xlink:href="#ArialMT-74"/>
     <use x="733.373046875" xlink:href="#ArialMT-65"/>
     <use x="788.98828125" xlink:href="#ArialMT-72"/>
     <use x="822.2890625" xlink:href="#ArialMT-61"/>
     <use x="877.904296875" xlink:href="#ArialMT-74"/>
     <use x="905.6875" xlink:href="#ArialMT-75"/>
     <use x="961.302734375" xlink:href="#ArialMT-72"/>
     <use x="994.603515625" xlink:href="#ArialMT-65"/>
    </g>
   </g>
   <g id="legend_1">
    <g id="line2d_44"/>
    <g id="line2d_45">
     <g>
      <use style="fill:#db5f57;" x="502.2859375" xlink:href="#me65c941fda" y="70.2578125"/>
     </g>
    </g>
    <g id="text_5">
     <!-- Crestmore -->
     <defs>
      <path d="M 3.078125 15.484375 
L 11.765625 16.84375 
Q 12.5 11.625 15.84375 8.84375 
Q 19.1875 6.0625 25.203125 6.0625 
Q 31.25 6.0625 34.171875 8.515625 
Q 37.109375 10.984375 37.109375 14.3125 
Q 37.109375 17.28125 34.515625 19 
Q 32.71875 20.171875 25.53125 21.96875 
Q 15.875 24.421875 12.140625 26.203125 
Q 8.40625 27.984375 6.46875 31.125 
Q 4.546875 34.28125 4.546875 38.09375 
Q 4.546875 41.546875 6.125 44.5 
Q 7.71875 47.46875 10.453125 49.421875 
Q 12.5 50.921875 16.03125 51.96875 
Q 19.578125 53.03125 23.640625 53.03125 
Q 29.734375 53.03125 34.34375 51.265625 
Q 38.96875 49.515625 41.15625 46.5 
Q 43.359375 43.5 44.1875 38.484375 
L 35.59375 37.3125 
Q 35.015625 41.3125 32.203125 43.546875 
Q 29.390625 45.796875 24.265625 45.796875 
Q 18.21875 45.796875 15.625 43.796875 
Q 13.03125 41.796875 13.03125 39.109375 
Q 13.03125 37.40625 14.109375 36.03125 
Q 15.1875 34.625 17.484375 33.6875 
Q 18.796875 33.203125 25.25 31.453125 
Q 34.578125 28.953125 38.25 27.359375 
Q 41.9375 25.78125 44.03125 22.75 
Q 46.140625 19.734375 46.140625 15.234375 
Q 46.140625 10.84375 43.578125 6.953125 
Q 41.015625 3.078125 36.171875 0.953125 
Q 31.34375 -1.171875 25.25 -1.171875 
Q 15.140625 -1.171875 9.84375 3.03125 
Q 4.546875 7.234375 3.078125 15.484375 
" id="ArialMT-73"/>
      <path d="M 58.796875 25.09375 
L 68.265625 22.703125 
Q 65.28125 11.03125 57.546875 4.90625 
Q 49.8125 -1.21875 38.625 -1.21875 
Q 27.046875 -1.21875 19.796875 3.484375 
Q 12.546875 8.203125 8.765625 17.140625 
Q 4.984375 26.078125 4.984375 36.328125 
Q 4.984375 47.515625 9.25 55.828125 
Q 13.53125 64.15625 21.40625 68.46875 
Q 29.296875 72.796875 38.765625 72.796875 
Q 49.515625 72.796875 56.828125 67.328125 
Q 64.15625 61.859375 67.046875 51.953125 
L 57.71875 49.75 
Q 55.21875 57.5625 50.484375 61.125 
Q 45.75 64.703125 38.578125 64.703125 
Q 30.328125 64.703125 24.78125 60.734375 
Q 19.234375 56.78125 16.984375 50.109375 
Q 14.75 43.453125 14.75 36.375 
Q 14.75 27.25 17.40625 20.4375 
Q 20.0625 13.625 25.671875 10.25 
Q 31.296875 6.890625 37.84375 6.890625 
Q 45.796875 6.890625 51.3125 11.46875 
Q 56.84375 16.0625 58.796875 25.09375 
" id="ArialMT-43"/>
     </defs>
     <g style="fill:#262626;" transform="translate(520.2859375 73.7578125)scale(0.1 -0.1)">
      <use xlink:href="#ArialMT-43"/>
      <use x="72.216796875" xlink:href="#ArialMT-72"/>
      <use x="105.517578125" xlink:href="#ArialMT-65"/>
      <use x="161.1328125" xlink:href="#ArialMT-73"/>
      <use x="211.1328125" xlink:href="#ArialMT-74"/>
      <use x="238.916015625" xlink:href="#ArialMT-6d"/>
      <use x="322.216796875" xlink:href="#ArialMT-6f"/>
      <use x="377.83203125" xlink:href="#ArialMT-72"/>
      <use x="411.1328125" xlink:href="#ArialMT-65"/>
     </g>
    </g>
    <g id="line2d_46"/>
    <g id="line2d_47">
     <g>
      <use style="fill:#dbc257;" x="502.2859375" xlink:href="#mc57d0302f6" y="84.403125"/>
     </g>
    </g>
    <g id="text_6">
     <!-- Fuka -->
     <defs>
      <path d="M 6.640625 0 
L 6.640625 71.578125 
L 15.4375 71.578125 
L 15.4375 30.765625 
L 36.234375 51.859375 
L 47.609375 51.859375 
L 27.78125 32.625 
L 49.609375 0 
L 38.765625 0 
L 21.625 26.515625 
L 15.4375 20.5625 
L 15.4375 0 
z
" id="ArialMT-6b"/>
      <path d="M 8.203125 0 
L 8.203125 71.578125 
L 56.5 71.578125 
L 56.5 63.140625 
L 17.671875 63.140625 
L 17.671875 40.96875 
L 51.265625 40.96875 
L 51.265625 32.515625 
L 17.671875 32.515625 
L 17.671875 0 
z
" id="ArialMT-46"/>
     </defs>
     <g style="fill:#262626;" transform="translate(520.2859375 87.903125)scale(0.1 -0.1)">
      <use xlink:href="#ArialMT-46"/>
      <use x="61.083984375" xlink:href="#ArialMT-75"/>
      <use x="116.69921875" xlink:href="#ArialMT-6b"/>
      <use x="166.69921875" xlink:href="#ArialMT-61"/>
     </g>
    </g>
    <g id="line2d_48"/>
    <g id="line2d_49">
     <g>
      <use style="fill:#91db57;" x="502.2859375" xlink:href="#me4e50357ba" y="98.5484375"/>
     </g>
    </g>
    <g id="text_7">
     <!-- Loch Arnoth -->
     <defs>
      <path d="M 6.59375 0 
L 6.59375 71.578125 
L 15.375 71.578125 
L 15.375 45.90625 
Q 21.53125 53.03125 30.90625 53.03125 
Q 36.671875 53.03125 40.921875 50.75 
Q 45.171875 48.484375 47 44.484375 
Q 48.828125 40.484375 48.828125 32.859375 
L 48.828125 0 
L 40.046875 0 
L 40.046875 32.859375 
Q 40.046875 39.453125 37.1875 42.453125 
Q 34.328125 45.453125 29.109375 45.453125 
Q 25.203125 45.453125 21.75 43.421875 
Q 18.3125 41.40625 16.84375 37.9375 
Q 15.375 34.46875 15.375 28.375 
L 15.375 0 
z
" id="ArialMT-68"/>
      <path d="M -0.140625 0 
L 27.34375 71.578125 
L 37.546875 71.578125 
L 66.84375 0 
L 56.0625 0 
L 47.703125 21.6875 
L 17.78125 21.6875 
L 9.90625 0 
z
M 20.515625 29.390625 
L 44.78125 29.390625 
L 37.3125 49.21875 
Q 33.890625 58.25 32.234375 64.0625 
Q 30.859375 57.171875 28.375 50.390625 
z
" id="ArialMT-41"/>
      <path d="M 40.4375 19 
L 49.078125 17.875 
Q 47.65625 8.9375 41.8125 3.875 
Q 35.984375 -1.171875 27.484375 -1.171875 
Q 16.84375 -1.171875 10.375 5.78125 
Q 3.90625 12.75 3.90625 25.734375 
Q 3.90625 34.125 6.6875 40.421875 
Q 9.46875 46.734375 15.15625 49.875 
Q 20.84375 53.03125 27.546875 53.03125 
Q 35.984375 53.03125 41.359375 48.75 
Q 46.734375 44.484375 48.25 36.625 
L 39.703125 35.296875 
Q 38.484375 40.53125 35.375 43.15625 
Q 32.28125 45.796875 27.875 45.796875 
Q 21.234375 45.796875 17.078125 41.03125 
Q 12.9375 36.28125 12.9375 25.984375 
Q 12.9375 15.53125 16.9375 10.796875 
Q 20.953125 6.0625 27.390625 6.0625 
Q 32.5625 6.0625 36.03125 9.234375 
Q 39.5 12.40625 40.4375 19 
" id="ArialMT-63"/>
      <path d="M 6.59375 0 
L 6.59375 51.859375 
L 14.5 51.859375 
L 14.5 44.484375 
Q 20.21875 53.03125 31 53.03125 
Q 35.6875 53.03125 39.625 51.34375 
Q 43.5625 49.65625 45.515625 46.921875 
Q 47.46875 44.1875 48.25 40.4375 
Q 48.734375 37.984375 48.734375 31.890625 
L 48.734375 0 
L 39.9375 0 
L 39.9375 31.546875 
Q 39.9375 36.921875 38.90625 39.578125 
Q 37.890625 42.234375 35.28125 43.8125 
Q 32.671875 45.40625 29.15625 45.40625 
Q 23.53125 45.40625 19.453125 41.84375 
Q 15.375 38.28125 15.375 28.328125 
L 15.375 0 
z
" id="ArialMT-6e"/>
     </defs>
     <g style="fill:#262626;" transform="translate(520.2859375 102.0484375)scale(0.1 -0.1)">
      <use xlink:href="#ArialMT-4c"/>
      <use x="55.615234375" xlink:href="#ArialMT-6f"/>
      <use x="111.23046875" xlink:href="#ArialMT-63"/>
      <use x="161.23046875" xlink:href="#ArialMT-68"/>
      <use x="216.845703125" xlink:href="#ArialMT-20"/>
      <use x="244.55078125" xlink:href="#ArialMT-41"/>
      <use x="311.25" xlink:href="#ArialMT-72"/>
      <use x="344.55078125" xlink:href="#ArialMT-6e"/>
      <use x="400.166015625" xlink:href="#ArialMT-6f"/>
      <use x="455.78125" xlink:href="#ArialMT-74"/>
      <use x="483.564453125" xlink:href="#ArialMT-68"/>
     </g>
    </g>
    <g id="line2d_50"/>
    <g id="line2d_51">
     <g>
      <use style="fill:#57db80;" x="502.2859375" xlink:href="#mdf6e528119" y="112.69375"/>
     </g>
    </g>
    <g id="text_8">
     <!-- Puyuhuapi -->
     <defs>
      <path d="M 7.71875 0 
L 7.71875 71.578125 
L 34.71875 71.578125 
Q 41.84375 71.578125 45.609375 70.90625 
Q 50.875 70.015625 54.4375 67.546875 
Q 58.015625 65.09375 60.1875 60.640625 
Q 62.359375 56.203125 62.359375 50.875 
Q 62.359375 41.75 56.546875 35.421875 
Q 50.734375 29.109375 35.546875 29.109375 
L 17.1875 29.109375 
L 17.1875 0 
z
M 17.1875 37.546875 
L 35.6875 37.546875 
Q 44.875 37.546875 48.734375 40.96875 
Q 52.59375 44.390625 52.59375 50.59375 
Q 52.59375 55.078125 50.3125 58.265625 
Q 48.046875 61.46875 44.34375 62.5 
Q 41.9375 63.140625 35.5 63.140625 
L 17.1875 63.140625 
z
" id="ArialMT-50"/>
      <path d="M 6.203125 -19.96875 
L 5.21875 -11.71875 
Q 8.109375 -12.5 10.25 -12.5 
Q 13.1875 -12.5 14.9375 -11.515625 
Q 16.703125 -10.546875 17.828125 -8.796875 
Q 18.65625 -7.46875 20.515625 -2.25 
Q 20.75 -1.515625 21.296875 -0.09375 
L 1.609375 51.859375 
L 11.078125 51.859375 
L 21.875 21.828125 
Q 23.96875 16.109375 25.640625 9.8125 
Q 27.15625 15.875 29.25 21.625 
L 40.328125 51.859375 
L 49.125 51.859375 
L 29.390625 -0.875 
Q 26.21875 -9.421875 24.46875 -12.640625 
Q 22.125 -17 19.09375 -19.015625 
Q 16.0625 -21.046875 11.859375 -21.046875 
Q 9.328125 -21.046875 6.203125 -19.96875 
" id="ArialMT-79"/>
      <path d="M 6.59375 -19.875 
L 6.59375 51.859375 
L 14.59375 51.859375 
L 14.59375 45.125 
Q 17.4375 49.078125 21 51.046875 
Q 24.5625 53.03125 29.640625 53.03125 
Q 36.28125 53.03125 41.359375 49.609375 
Q 46.4375 46.1875 49.015625 39.953125 
Q 51.609375 33.734375 51.609375 26.3125 
Q 51.609375 18.359375 48.75 11.984375 
Q 45.90625 5.609375 40.453125 2.21875 
Q 35.015625 -1.171875 29 -1.171875 
Q 24.609375 -1.171875 21.109375 0.6875 
Q 17.625 2.546875 15.375 5.375 
L 15.375 -19.875 
z
M 14.546875 25.640625 
Q 14.546875 15.625 18.59375 10.84375 
Q 22.65625 6.0625 28.421875 6.0625 
Q 34.28125 6.0625 38.453125 11.015625 
Q 42.625 15.96875 42.625 26.375 
Q 42.625 36.28125 38.546875 41.203125 
Q 34.46875 46.140625 28.8125 46.140625 
Q 23.1875 46.140625 18.859375 40.890625 
Q 14.546875 35.640625 14.546875 25.640625 
" id="ArialMT-70"/>
     </defs>
     <g style="fill:#262626;" transform="translate(520.2859375 116.19375)scale(0.1 -0.1)">
      <use xlink:href="#ArialMT-50"/>
      <use x="66.69921875" xlink:href="#ArialMT-75"/>
      <use x="122.314453125" xlink:href="#ArialMT-79"/>
      <use x="172.314453125" xlink:href="#ArialMT-75"/>
      <use x="227.9296875" xlink:href="#ArialMT-68"/>
      <use x="283.544921875" xlink:href="#ArialMT-75"/>
      <use x="339.16015625" xlink:href="#ArialMT-61"/>
      <use x="394.775390625" xlink:href="#ArialMT-70"/>
      <use x="450.390625" xlink:href="#ArialMT-69"/>
     </g>
    </g>
    <g id="line2d_52"/>
    <g id="line2d_53">
     <g>
      <use style="fill:#57d3db;" x="502.2859375" xlink:href="#m365807c9c6" y="127.078125"/>
     </g>
    </g>
    <g id="text_9">
     <!-- Skye -->
     <defs>
      <path d="M 4.5 23 
L 13.421875 23.78125 
Q 14.0625 18.40625 16.375 14.96875 
Q 18.703125 11.53125 23.578125 9.40625 
Q 28.46875 7.28125 34.578125 7.28125 
Q 39.984375 7.28125 44.140625 8.890625 
Q 48.296875 10.5 50.3125 13.296875 
Q 52.34375 16.109375 52.34375 19.4375 
Q 52.34375 22.796875 50.390625 25.3125 
Q 48.4375 27.828125 43.953125 29.546875 
Q 41.0625 30.671875 31.203125 33.03125 
Q 21.34375 35.40625 17.390625 37.5 
Q 12.25 40.1875 9.734375 44.15625 
Q 7.234375 48.140625 7.234375 53.078125 
Q 7.234375 58.5 10.296875 63.203125 
Q 13.375 67.921875 19.28125 70.359375 
Q 25.203125 72.796875 32.421875 72.796875 
Q 40.375 72.796875 46.453125 70.234375 
Q 52.546875 67.671875 55.8125 62.6875 
Q 59.078125 57.71875 59.328125 51.421875 
L 50.25 50.734375 
Q 49.515625 57.515625 45.28125 60.984375 
Q 41.0625 64.453125 32.8125 64.453125 
Q 24.21875 64.453125 20.28125 61.296875 
Q 16.359375 58.15625 16.359375 53.71875 
Q 16.359375 49.859375 19.140625 47.359375 
Q 21.875 44.875 33.421875 42.265625 
Q 44.96875 39.65625 49.265625 37.703125 
Q 55.515625 34.8125 58.484375 30.390625 
Q 61.46875 25.984375 61.46875 20.21875 
Q 61.46875 14.5 58.203125 9.4375 
Q 54.9375 4.390625 48.796875 1.578125 
Q 42.671875 -1.21875 35.015625 -1.21875 
Q 25.296875 -1.21875 18.71875 1.609375 
Q 12.15625 4.4375 8.421875 10.125 
Q 4.6875 15.828125 4.5 23 
" id="ArialMT-53"/>
     </defs>
     <g style="fill:#262626;" transform="translate(520.2859375 130.578125)scale(0.1 -0.1)">
      <use xlink:href="#ArialMT-53"/>
      <use x="66.69921875" xlink:href="#ArialMT-6b"/>
      <use x="116.69921875" xlink:href="#ArialMT-79"/>
      <use x="166.69921875" xlink:href="#ArialMT-65"/>
     </g>
    </g>
    <g id="line2d_54"/>
    <g id="line2d_55">
     <g>
      <use style="fill:#5770db;" x="502.2859375" xlink:href="#m27fe206b36" y="141.4625"/>
     </g>
    </g>
    <g id="text_10">
     <!-- Surtsey -->
     <g style="fill:#262626;" transform="translate(520.2859375 144.9625)scale(0.1 -0.1)">
      <use xlink:href="#ArialMT-53"/>
      <use x="66.69921875" xlink:href="#ArialMT-75"/>
      <use x="122.314453125" xlink:href="#ArialMT-72"/>
      <use x="155.615234375" xlink:href="#ArialMT-74"/>
      <use x="183.3984375" xlink:href="#ArialMT-73"/>
      <use x="233.3984375" xlink:href="#ArialMT-65"/>
      <use x="289.013671875" xlink:href="#ArialMT-79"/>
     </g>
    </g>
    <g id="line2d_56"/>
    <g id="line2d_57">
     <g>
      <use style="fill:#a157db;" x="502.2859375" xlink:href="#m055d6946ad" y="155.725"/>
     </g>
    </g>
    <g id="text_11">
     <!-- Tobermory -->
     <g style="fill:#262626;" transform="translate(520.2859375 159.225)scale(0.1 -0.1)">
      <use xlink:href="#ArialMT-54"/>
      <use x="60.912109375" xlink:href="#ArialMT-6f"/>
      <use x="116.52734375" xlink:href="#ArialMT-62"/>
      <use x="172.142578125" xlink:href="#ArialMT-65"/>
      <use x="227.7578125" xlink:href="#ArialMT-72"/>
      <use x="261.05859375" xlink:href="#ArialMT-6d"/>
      <use x="344.359375" xlink:href="#ArialMT-6f"/>
      <use x="399.974609375" xlink:href="#ArialMT-72"/>
      <use x="433.275390625" xlink:href="#ArialMT-79"/>
     </g>
    </g>
    <g id="line2d_58"/>
    <g id="line2d_59">
     <g>
      <use style="fill:#db57b2;" x="502.2859375" xlink:href="#m4895fafd7f" y="169.9875"/>
     </g>
    </g>
    <g id="text_12">
     <!-- Wessels -->
     <defs>
      <path d="M 20.21875 0 
L 1.21875 71.578125 
L 10.9375 71.578125 
L 21.828125 24.65625 
Q 23.578125 17.28125 24.859375 10.015625 
Q 27.59375 21.484375 28.078125 23.25 
L 41.703125 71.578125 
L 53.125 71.578125 
L 63.375 35.359375 
Q 67.234375 21.875 68.953125 10.015625 
Q 70.3125 16.796875 72.515625 25.59375 
L 83.734375 71.578125 
L 93.265625 71.578125 
L 73.640625 0 
L 64.5 0 
L 49.421875 54.546875 
Q 47.515625 61.375 47.171875 62.9375 
Q 46.046875 58.015625 45.0625 54.546875 
L 29.890625 0 
z
" id="ArialMT-57"/>
      <path d="M 6.390625 0 
L 6.390625 71.578125 
L 15.1875 71.578125 
L 15.1875 0 
z
" id="ArialMT-6c"/>
     </defs>
     <g style="fill:#262626;" transform="translate(520.2859375 173.4875)scale(0.1 -0.1)">
      <use xlink:href="#ArialMT-57"/>
      <use x="94.369140625" xlink:href="#ArialMT-65"/>
      <use x="149.984375" xlink:href="#ArialMT-73"/>
      <use x="199.984375" xlink:href="#ArialMT-73"/>
      <use x="249.984375" xlink:href="#ArialMT-65"/>
      <use x="305.599609375" xlink:href="#ArialMT-6c"/>
      <use x="327.81640625" xlink:href="#ArialMT-73"/>
     </g>
    </g>
   </g>
  </g>
 </g>
 <defs>
  <clipPath id="p1eef1d52d2">
   <rect height="446.4" width="502.2" x="81.0" y="57.6"/>
  </clipPath>
 </defs>
</svg>
